<svg xmlns="http://www.w3.org/2000/svg" xmlns:xlink="http://www.w3.org/1999/xlink" viewBox="0 0 104.31 146.01"><defs><style>.cls-1,.cls-10,.cls-6,.cls-8{fill:#fff;}.cls-1{opacity:0.8;}.cls-2{fill:#ffc400;}.cls-3{opacity:0.65;}.cls-4{fill:#ffe082;}.cls-5{fill:url(#linear-gradient);}.cls-6{opacity:0.9;}.cls-7{fill:url(#linear-gradient-2);}.cls-9{opacity:0.7;}.cls-10{opacity:0.6;}.cls-11{fill:url(#linear-gradient-3);}.cls-12{fill:#ff6d00;}</style><linearGradient id="linear-gradient" x1="75.24" y1="47.52" x2="75.31" y2="47.52" gradientUnits="userSpaceOnUse"><stop offset="0" stop-color="#fff" stop-opacity="0.1"/><stop offset="0.01" stop-color="#fff" stop-opacity="0.13"/><stop offset="0.07" stop-color="#fff" stop-opacity="0.31"/><stop offset="0.14" stop-color="#fff" stop-opacity="0.48"/><stop offset="0.21" stop-color="#fff" stop-opacity="0.62"/><stop offset="0.29" stop-color="#fff" stop-opacity="0.74"/><stop offset="0.38" stop-color="#fff" stop-opacity="0.83"/><stop offset="0.47" stop-color="#fff" stop-opacity="0.91"/><stop offset="0.58" stop-color="#fff" stop-opacity="0.96"/><stop offset="0.72" stop-color="#fff" stop-opacity="0.99"/><stop offset="1" stop-color="#fff"/></linearGradient><linearGradient id="linear-gradient-2" x1="66.71" y1="39.18" x2="75.31" y2="39.18" xlink:href="#linear-gradient"/><linearGradient id="linear-gradient-3" x1="66.71" y1="107.05" x2="75.31" y2="107.05" gradientUnits="userSpaceOnUse"><stop offset="0" stop-color="#fff" stop-opacity="0"/><stop offset="0.01" stop-color="#fffffc" stop-opacity="0.02"/><stop offset="0.17" stop-color="#fffad1" stop-opacity="0.27"/><stop offset="0.34" stop-color="#fff6ac" stop-opacity="0.49"/><stop offset="0.49" stop-color="#fef38e" stop-opacity="0.68"/><stop offset="0.64" stop-color="#fef076" stop-opacity="0.82"/><stop offset="0.78" stop-color="#feee65" stop-opacity="0.92"/><stop offset="0.9" stop-color="#feed5b" stop-opacity="0.98"/><stop offset="1" stop-color="#feed57"/><stop offset="1" stop-color="#fef17e"/><stop offset="1" stop-color="#fef5a1"/><stop offset="1" stop-color="#fff8be"/><stop offset="1" stop-color="#fffbd6"/><stop offset="1" stop-color="#fffde8"/><stop offset="1" stop-color="#fffef5"/><stop offset="1" stop-color="#fffffd"/><stop offset="1" stop-color="#fff"/></linearGradient></defs><title>beam-logo-3-color-nameless</title><g id="Calque_2" data-name="Calque 2"><g id="Layer_1" data-name="Layer 1"><path class="cls-1" d="M0,6V140H0v6H53.6a76.84,76.84,0,0,0,21.21-2.71,44.58,44.58,0,0,0,16-8.09,35.13,35.13,0,0,0,10.06-13.38,46.43,46.43,0,0,0,3.47-18.53,40.59,40.59,0,0,0-1.51-11.06,32.76,32.76,0,0,0-4.58-9.76,30.92,30.92,0,0,0-7.75-7.7A34.78,34.78,0,0,0,80,70,34.87,34.87,0,0,0,95.37,57.72,31.78,31.78,0,0,0,100.8,39.6a42.07,42.07,0,0,0-3.47-17.74,31.7,31.7,0,0,0-10-12.33,45.17,45.17,0,0,0-16-7.18A88.24,88.24,0,0,0,50.1,0H0V6"/><path class="cls-2" d="M74.37,97.14,36.23,73,74.36,48.87a1.83,1.83,0,0,0,.94-1.6V30.78A1.82,1.82,0,0,0,74,29L0,6V140H0l.14,0L74,117a1.82,1.82,0,0,0,1.26-1.73V98.73A1.83,1.83,0,0,0,74.37,97.14Z"/><g class="cls-3"><path class="cls-4" d="M66.71,39.18a8.59,8.59,0,0,1,8.56-8.59A1.81,1.81,0,0,0,74,29l-1.24-.38L0,37.14v4.08l73,8.51,1.36-.86a1.84,1.84,0,0,0,.87-1.1A8.59,8.59,0,0,1,66.71,39.18Z"/></g><g class="cls-3"><path class="cls-5" d="M75.24,47.77a1.81,1.81,0,0,0,.07-.49A1.81,1.81,0,0,1,75.24,47.77Z"/></g><path class="cls-6" d="M75.3,30.59h0a1.76,1.76,0,0,1,0,.18C75.31,30.71,75.3,30.65,75.3,30.59Z"/><polygon class="cls-6" points="75.23 47.77 75.23 47.77 75.23 47.77 75.23 47.77"/><g class="cls-3"><path class="cls-7" d="M75.31,30.78a1.76,1.76,0,0,0,0-.18,8.59,8.59,0,0,0,0,17.18h0a1.81,1.81,0,0,0,.07-.49Z"/></g><path class="cls-8" d="M75.31,30.78a1.76,1.76,0,0,0,0-.18,8.59,8.59,0,0,0,0,17.18h0a1.81,1.81,0,0,0,.07-.49Z"/><g class="cls-9"><path class="cls-4" d="M66.71,107.05a8.59,8.59,0,0,1,8.56-8.59,1.82,1.82,0,0,0-.9-1.32l-1.06-.67L0,105v4.08l72.27,8.43L74,117a1.8,1.8,0,0,0,1.19-1.32A8.59,8.59,0,0,1,66.71,107.05Z"/></g><path class="cls-10" d="M75.26,115.64a1.83,1.83,0,0,0,0-.41,1.8,1.8,0,0,1-.07.41Z"/><path class="cls-10" d="M75.28,98.46h0a1.78,1.78,0,0,1,0,.27A1.81,1.81,0,0,0,75.28,98.46Z"/><g class="cls-9"><path class="cls-11" d="M75.27,98.46a8.59,8.59,0,0,0,0,17.18,1.8,1.8,0,0,0,.07-.41V98.73A1.78,1.78,0,0,0,75.27,98.46Z"/></g><path class="cls-8" d="M75.27,98.46a8.59,8.59,0,0,0,0,17.18,1.8,1.8,0,0,0,.07-.41V98.73A1.78,1.78,0,0,0,75.27,98.46Z"/><path class="cls-12" d="M102.8,92.25a32.76,32.76,0,0,0-4.58-9.76,30.92,30.92,0,0,0-7.75-7.7A34.78,34.78,0,0,0,80,70,34.87,34.87,0,0,0,95.37,57.72,31.78,31.78,0,0,0,100.8,39.6a42.07,42.07,0,0,0-3.47-17.74,31.7,31.7,0,0,0-10-12.33,45.17,45.17,0,0,0-16-7.18A88.24,88.24,0,0,0,50.1,0H0V6L74,29a1.82,1.82,0,0,1,1.26,1.74v16.5a1.83,1.83,0,0,1-.94,1.6l-37.87,24-.27.17L74.37,97.14a1.83,1.83,0,0,1,.93,1.59v16.5A1.82,1.82,0,0,1,74,117L.14,140,0,140v6H53.6a76.85,76.85,0,0,0,21.21-2.71,44.58,44.58,0,0,0,16-8.09,35.13,35.13,0,0,0,10.06-13.38,46.43,46.43,0,0,0,3.47-18.53A40.59,40.59,0,0,0,102.8,92.25Z"/></g></g></svg>