<svg xmlns="http://www.w3.org/2000/svg" viewBox="0 0 77.54 28.01"><defs><style>.cls-1,.cls-5{fill:#fff;}.cls-2{fill:#bdbdbd;}.cls-3{opacity:0.7;}.cls-4{opacity:0.65;}.cls-5{opacity:0.9;}.cls-6,.cls-7{fill:#757575;}.cls-6{opacity:0.8;}.cls-7{stroke:#757575;stroke-miterlimit:10;stroke-width:0.19px;}</style></defs><title>beam-logo-bw-name-right</title><g id="Calque_2" data-name="Calque 2"><g id="Layer_1" data-name="Layer 1"><path class="cls-1" d="M0,1.15V26.86H0V28H10.28a14.74,14.74,0,0,0,4.07-.52,8.55,8.55,0,0,0,3.06-1.55,6.74,6.74,0,0,0,1.93-2.57A8.91,8.91,0,0,0,20,19.82a7.79,7.79,0,0,0-.29-2.12,6.28,6.28,0,0,0-.88-1.87,5.93,5.93,0,0,0-1.49-1.48,6.67,6.67,0,0,0-2-.93,6.69,6.69,0,0,0,2.95-2.35,6.1,6.1,0,0,0,1-3.47,8.07,8.07,0,0,0-.67-3.4,6.08,6.08,0,0,0-1.92-2.36A8.67,8.67,0,0,0,13.69.45,16.93,16.93,0,0,0,9.61,0H0V1.15"/><path class="cls-2" d="M14.27,18.63,6.95,14l7.32-4.63a.35.35,0,0,0,.18-.31V5.9a.35.35,0,0,0-.24-.33L0,1.15V26.86H0L14.2,22.44a.35.35,0,0,0,.24-.33V18.94A.35.35,0,0,0,14.27,18.63Z"/><g class="cls-3"><path class="cls-1" d="M14.27,18.63l-.2-.13L0,19.9v1.17l13.86,1.48.34-.11a.35.35,0,0,0,.24-.33V18.94A.35.35,0,0,0,14.27,18.63Z"/></g><g class="cls-4"><path class="cls-1" d="M14.26,9.38a.35.35,0,0,0,.18-.31V5.9a.35.35,0,0,0-.24-.33L14,5.5,0,6.83V8.19L14,9.54Z"/></g><path class="cls-5" d="M12.8,7.52a1.65,1.65,0,0,0,1.63,1.65.35.35,0,0,0,0-.1V5.9a.35.35,0,0,0,0,0A1.65,1.65,0,0,0,12.8,7.52Z"/><path class="cls-1" d="M12.8,20.54a1.65,1.65,0,0,0,1.64,1.65.35.35,0,0,0,0-.08V18.94a.35.35,0,0,0,0-.05A1.65,1.65,0,0,0,12.8,20.54Z"/><path class="cls-6" d="M19.72,17.7a6.28,6.28,0,0,0-.88-1.87,5.93,5.93,0,0,0-1.49-1.48,6.67,6.67,0,0,0-2-.93,6.69,6.69,0,0,0,2.95-2.35,6.1,6.1,0,0,0,1-3.47,8.07,8.07,0,0,0-.67-3.4,6.08,6.08,0,0,0-1.92-2.36A8.67,8.67,0,0,0,13.69.45,16.93,16.93,0,0,0,9.61,0H0V1.15L14.2,5.57a.35.35,0,0,1,.24.33V9.07a.35.35,0,0,1-.18.31L7,14l-.05,0,7.32,4.63a.35.35,0,0,1,.18.31V22.1a.35.35,0,0,1-.24.33L0,26.85H0V28H10.28a14.74,14.74,0,0,0,4.07-.52,8.55,8.55,0,0,0,3.06-1.55,6.74,6.74,0,0,0,1.93-2.57A8.91,8.91,0,0,0,20,19.82,7.79,7.79,0,0,0,19.72,17.7Z"/><path class="cls-7" d="M40,14.67a8.3,8.3,0,0,1-.27,2.18,5.15,5.15,0,0,1-.79,1.69,3.69,3.69,0,0,1-1.27,1.1,3.62,3.62,0,0,1-1.71.4,4.17,4.17,0,0,1-2-.44,3.78,3.78,0,0,1-1.35-1.2l0,1.45H31.45v-15h1.16v6a3.76,3.76,0,0,1,1.34-1.27,4,4,0,0,1,2-.45,3.75,3.75,0,0,1,1.72.38,3.61,3.61,0,0,1,1.27,1.08,5,5,0,0,1,.79,1.69A8.51,8.51,0,0,1,40,14.47Zm-1.17-.21a8,8,0,0,0-.18-1.72,4.23,4.23,0,0,0-.55-1.39,2.66,2.66,0,0,0-2.37-1.26,3.47,3.47,0,0,0-1.17.18,2.91,2.91,0,0,0-.88.48,3,3,0,0,0-.62.69,4,4,0,0,0-.41.81V17a3.89,3.89,0,0,0,.46.79,3,3,0,0,0,.66.63,3.09,3.09,0,0,0,.87.42,3.78,3.78,0,0,0,1.11.15,2.73,2.73,0,0,0,1.37-.33,2.79,2.79,0,0,0,1-.92,4.25,4.25,0,0,0,.56-1.38,7.81,7.81,0,0,0,.18-1.72Z"/><path class="cls-7" d="M46.33,20a4.64,4.64,0,0,1-1.9-.39,4.46,4.46,0,0,1-1.5-1.07,4.94,4.94,0,0,1-1-1.64,5.94,5.94,0,0,1-.35-2.08v-.42A6.34,6.34,0,0,1,42,12.24a5.19,5.19,0,0,1,1-1.69,4.43,4.43,0,0,1,1.44-1.08,4,4,0,0,1,1.72-.38,4.21,4.21,0,0,1,1.79.36,3.69,3.69,0,0,1,1.31,1A4.42,4.42,0,0,1,50,12a6.6,6.6,0,0,1,.27,1.94v.71H42.76v.22A5,5,0,0,0,43,16.5a4.12,4.12,0,0,0,.74,1.33,3.52,3.52,0,0,0,1.14.89,3.29,3.29,0,0,0,1.47.33A3.81,3.81,0,0,0,48,18.72a3.68,3.68,0,0,0,1.3-1.09l.73.56a5.14,5.14,0,0,1-.61.72,3.72,3.72,0,0,1-.81.6,4.37,4.37,0,0,1-1,.4A5.24,5.24,0,0,1,46.33,20Zm-.21-10a3,3,0,0,0-1.23.25,3,3,0,0,0-1,.72,3.83,3.83,0,0,0-.71,1.13,5.4,5.4,0,0,0-.38,1.46h6.34v-.13a4.75,4.75,0,0,0-.21-1.28,3.44,3.44,0,0,0-.57-1.1,2.73,2.73,0,0,0-2.23-1.05Z"/><path class="cls-7" d="M58.94,19.85a3.43,3.43,0,0,1-.15-.67q-.05-.4-.07-.81a4.17,4.17,0,0,1-1.44,1.17,4.94,4.94,0,0,1-1,.36,4.71,4.71,0,0,1-1.16.14,4.16,4.16,0,0,1-1.4-.22,3.16,3.16,0,0,1-1.07-.63,2.86,2.86,0,0,1-.69-1,3.06,3.06,0,0,1,.09-2.58,3,3,0,0,1,1-1.05,4.66,4.66,0,0,1,1.52-.66,8.06,8.06,0,0,1,2-.23h2.17V12.5a2.31,2.31,0,0,0-.7-1.78,2.88,2.88,0,0,0-2-.65,3.68,3.68,0,0,0-1.13.17,2.86,2.86,0,0,0-.89.46,2.19,2.19,0,0,0-.59.68,1.7,1.7,0,0,0-.21.83H52A2.44,2.44,0,0,1,52.27,11a3.2,3.2,0,0,1,.83-1,4.23,4.23,0,0,1,1.28-.7A5,5,0,0,1,56,9.09a5.3,5.3,0,0,1,1.55.21,3.34,3.34,0,0,1,1.22.64A2.91,2.91,0,0,1,59.58,11a3.7,3.7,0,0,1,.28,1.5v5.12c0,.18,0,.37,0,.57s0,.38.06.57.06.36.1.52a2.79,2.79,0,0,0,.14.43v.12ZM55.27,19a4.11,4.11,0,0,0,1.18-.16,3.81,3.81,0,0,0,1-.44,3.51,3.51,0,0,0,.76-.66,3.32,3.32,0,0,0,.52-.82V14.6h-2a7.28,7.28,0,0,0-1.61.16,3.91,3.91,0,0,0-1.2.46,2.19,2.19,0,0,0-.75.74,1.88,1.88,0,0,0-.26,1,2,2,0,0,0,.17.81,1.93,1.93,0,0,0,.47.65,2.26,2.26,0,0,0,.75.44A2.85,2.85,0,0,0,55.27,19Z"/><path class="cls-7" d="M63.75,9.28l0,1.72a4.49,4.49,0,0,1,.61-.79,3.58,3.58,0,0,1,.78-.61,3.87,3.87,0,0,1,.94-.39,4.17,4.17,0,0,1,1.09-.14,3.85,3.85,0,0,1,2,.49,2.69,2.69,0,0,1,1.18,1.56,4.35,4.35,0,0,1,.61-.82,3.83,3.83,0,0,1,.81-.65,4.1,4.1,0,0,1,1-.43A4.28,4.28,0,0,1,74,9.09a4.53,4.53,0,0,1,1.46.22,2.62,2.62,0,0,1,1.09.69,3.11,3.11,0,0,1,.68,1.21A5.8,5.8,0,0,1,77.45,13v6.88H76.28V13a4.41,4.41,0,0,0-.19-1.39,2.11,2.11,0,0,0-.53-.88,1.83,1.83,0,0,0-.82-.45,4,4,0,0,0-1-.13,3.09,3.09,0,0,0-2.24.92,3.07,3.07,0,0,0-.85,1.83v7H69.44v-7a4,4,0,0,0-.19-1.32,2.09,2.09,0,0,0-.53-.85,2,2,0,0,0-.82-.46,3.75,3.75,0,0,0-1-.14,3,3,0,0,0-1.17.21,2.91,2.91,0,0,0-.88.56,3.16,3.16,0,0,0-.62.8,5,5,0,0,0-.39.93v7.25H62.62V9.28Z"/></g></g></svg>