<svg xmlns="http://www.w3.org/2000/svg" viewBox="0 0 102.59 143.61"><defs><style>.cls-1,.cls-5{fill:#fff;}.cls-2{fill:#bdbdbd;}.cls-3{opacity:0.7;}.cls-4{opacity:0.65;}.cls-5{opacity:0.9;}.cls-6{fill:#757575;opacity:0.8;}</style></defs><title>beam-logo-bw-nameless</title><g id="Calque_2" data-name="Calque 2"><g id="Layer_1" data-name="Layer 1"><path class="cls-1" d="M0,5.87V137.74H0v5.87H52.72a75.58,75.58,0,0,0,20.86-2.66,43.85,43.85,0,0,0,15.71-8,34.55,34.55,0,0,0,9.89-13.16,45.66,45.66,0,0,0,3.41-18.23,39.92,39.92,0,0,0-1.48-10.87,32.22,32.22,0,0,0-4.5-9.6A30.42,30.42,0,0,0,89,73.56,34.21,34.21,0,0,0,78.7,68.81a34.3,34.3,0,0,0,15.11-12A31.26,31.26,0,0,0,99.15,39a41.38,41.38,0,0,0-3.41-17.44A31.18,31.18,0,0,0,85.89,9.38,44.43,44.43,0,0,0,70.18,2.32,86.79,86.79,0,0,0,49.28,0H0V5.87"/><path class="cls-2" d="M73.15,95.54,35.63,71.81,73.14,48.07a1.8,1.8,0,0,0,.93-1.57V30.27a1.79,1.79,0,0,0-1.24-1.71L0,5.87V137.74H0l.14,0L72.83,115a1.79,1.79,0,0,0,1.24-1.71V97.11A1.8,1.8,0,0,0,73.15,95.54Z"/><g class="cls-3"><path class="cls-1" d="M73.15,95.54l-1-.66L0,102v6l71.08,7.58,1.75-.55a1.79,1.79,0,0,0,1.24-1.71V97.11A1.8,1.8,0,0,0,73.15,95.54Z"/></g><g class="cls-4"><path class="cls-1" d="M73.14,48.07a1.8,1.8,0,0,0,.93-1.57V30.27a1.79,1.79,0,0,0-1.24-1.71l-1.22-.38L0,35v7l71.81,6.9Z"/></g><path class="cls-5" d="M65.62,38.54A8.45,8.45,0,0,0,74,47a1.78,1.78,0,0,0,.07-.49V30.27a1.82,1.82,0,0,0,0-.18A8.45,8.45,0,0,0,65.62,38.54Z"/><path class="cls-1" d="M65.62,105.3a8.45,8.45,0,0,0,8.4,8.45,1.8,1.8,0,0,0,0-.41V97.11a1.79,1.79,0,0,0,0-.27A8.45,8.45,0,0,0,65.62,105.3Z"/><path class="cls-6" d="M101.11,90.73a32.22,32.22,0,0,0-4.5-9.6A30.42,30.42,0,0,0,89,73.56,34.21,34.21,0,0,0,78.7,68.81a34.3,34.3,0,0,0,15.11-12A31.26,31.26,0,0,0,99.15,39a41.38,41.38,0,0,0-3.41-17.44A31.18,31.18,0,0,0,85.89,9.38,44.43,44.43,0,0,0,70.18,2.32,86.79,86.79,0,0,0,49.28,0H0V5.87L72.83,28.56a1.79,1.79,0,0,1,1.24,1.71V46.5a1.8,1.8,0,0,1-.93,1.57L35.9,71.64l-.27.17L73.15,95.54a1.8,1.8,0,0,1,.92,1.57v16.23A1.79,1.79,0,0,1,72.83,115L.14,137.69l-.14,0v5.87H52.72a75.58,75.58,0,0,0,20.86-2.66,43.85,43.85,0,0,0,15.71-8,34.55,34.55,0,0,0,9.89-13.16,45.66,45.66,0,0,0,3.41-18.23A39.92,39.92,0,0,0,101.11,90.73Z"/></g></g></svg>