<svg xmlns="http://www.w3.org/2000/svg" xmlns:xlink="http://www.w3.org/1999/xlink" viewBox="0 0 78.46 28"><defs><style>.cls-1,.cls-14{fill:#ff6d00;}.cls-12,.cls-13,.cls-2{fill:#fff;}.cls-18,.cls-2{opacity:0.8;}.cls-3{fill:#fee900;}.cls-4{fill:url(#fond_jaune_1);}.cls-5,.cls-6{opacity:0.75;}.cls-5{fill:url(#linear-gradient);}.cls-6{fill:url(#linear-gradient-2);}.cls-7{fill:url(#linear-gradient-3);}.cls-8{opacity:0.7;}.cls-9{fill:url(#linear-gradient-4);}.cls-10{opacity:0.65;}.cls-11{fill:url(#linear-gradient-5);}.cls-12{opacity:0.9;}.cls-13{opacity:0.6;}.cls-14{opacity:0.85;}.cls-15,.cls-16,.cls-18{fill:#e64a19;}.cls-15{opacity:0.25;}.cls-16{opacity:0.35;}.cls-17{fill:url(#linear-gradient-6);}</style><linearGradient id="fond_jaune_1" y1="9.76" x2="14.44" y2="9.76" gradientUnits="userSpaceOnUse"><stop offset="0" stop-color="#fff176" stop-opacity="0.7"/><stop offset="0.06" stop-color="#ffef5f" stop-opacity="0.68"/><stop offset="0.17" stop-color="#ffed3c" stop-opacity="0.65"/><stop offset="0.3" stop-color="#feeb21" stop-opacity="0.63"/><stop offset="0.44" stop-color="#feea0e" stop-opacity="0.61"/><stop offset="0.63" stop-color="#fee903" stop-opacity="0.6"/><stop offset="1" stop-color="#fee900" stop-opacity="0.6"/></linearGradient><linearGradient id="linear-gradient" y1="13.99" x2="6.95" y2="13.99" gradientUnits="userSpaceOnUse"><stop offset="0" stop-color="#ffc400"/><stop offset="0.14" stop-color="#fecd00"/><stop offset="0.37" stop-color="#fed400"/><stop offset="1" stop-color="#fed600"/></linearGradient><linearGradient id="linear-gradient-2" y1="18.23" x2="14.44" y2="18.23" xlink:href="#linear-gradient"/><linearGradient id="linear-gradient-3" y1="20.42" x2="14.44" y2="20.42" gradientUnits="userSpaceOnUse"><stop offset="0" stop-color="#ffab00" stop-opacity="0.7"/><stop offset="0.02" stop-color="#ffad04" stop-opacity="0.72"/><stop offset="0.14" stop-color="#fdb413" stop-opacity="0.82"/><stop offset="0.27" stop-color="#fcb91e" stop-opacity="0.9"/><stop offset="0.42" stop-color="#fcbd27" stop-opacity="0.96"/><stop offset="0.62" stop-color="#fbbf2c" stop-opacity="0.99"/><stop offset="1" stop-color="#fbc02d"/></linearGradient><linearGradient id="linear-gradient-4" y1="20.52" x2="14.44" y2="20.52" gradientUnits="userSpaceOnUse"><stop offset="0" stop-color="#fff" stop-opacity="0"/><stop offset="0.01" stop-color="#fffffc" stop-opacity="0.02"/><stop offset="0.17" stop-color="#fffad1" stop-opacity="0.27"/><stop offset="0.34" stop-color="#fff6ac" stop-opacity="0.49"/><stop offset="0.49" stop-color="#fef38e" stop-opacity="0.68"/><stop offset="0.64" stop-color="#fef076" stop-opacity="0.82"/><stop offset="0.78" stop-color="#feee65" stop-opacity="0.92"/><stop offset="0.9" stop-color="#feed5b" stop-opacity="0.98"/><stop offset="1" stop-color="#feed57"/><stop offset="1" stop-color="#fef17e"/><stop offset="1" stop-color="#fef5a1"/><stop offset="1" stop-color="#fff8be"/><stop offset="1" stop-color="#fffbd6"/><stop offset="1" stop-color="#fffde8"/><stop offset="1" stop-color="#fffef5"/><stop offset="1" stop-color="#fffffd"/><stop offset="1" stop-color="#fff"/></linearGradient><linearGradient id="linear-gradient-5" y1="7.52" x2="14.44" y2="7.52" gradientUnits="userSpaceOnUse"><stop offset="0" stop-color="#fff" stop-opacity="0.1"/><stop offset="0.01" stop-color="#fff" stop-opacity="0.13"/><stop offset="0.07" stop-color="#fff" stop-opacity="0.31"/><stop offset="0.14" stop-color="#fff" stop-opacity="0.48"/><stop offset="0.21" stop-color="#fff" stop-opacity="0.62"/><stop offset="0.29" stop-color="#fff" stop-opacity="0.74"/><stop offset="0.38" stop-color="#fff" stop-opacity="0.83"/><stop offset="0.47" stop-color="#fff" stop-opacity="0.91"/><stop offset="0.58" stop-color="#fff" stop-opacity="0.96"/><stop offset="0.72" stop-color="#fff" stop-opacity="0.99"/><stop offset="1" stop-color="#fff"/></linearGradient><linearGradient id="linear-gradient-6" y1="14" x2="20" y2="14" gradientUnits="userSpaceOnUse"><stop offset="0" stop-color="#ffca28"/><stop offset="0.25" stop-color="#f3931a"/><stop offset="0.49" stop-color="#ea670f"/><stop offset="0.7" stop-color="#e34707"/><stop offset="0.88" stop-color="#df3302"/><stop offset="1" stop-color="#dd2c00"/></linearGradient></defs><title>beam-logo-full-color-name-right</title><g id="Calque_2" data-name="Calque 2"><g id="Layer_1" data-name="Layer 1"><path class="cls-1" d="M41,15.15a8.25,8.25,0,0,1-.27,2.18A5.09,5.09,0,0,1,39.91,19a3.66,3.66,0,0,1-1.27,1.1,3.61,3.61,0,0,1-1.71.4,4.18,4.18,0,0,1-2-.44,3.79,3.79,0,0,1-1.35-1.2l0,1.45H32.45v-15h1.16v6A3.77,3.77,0,0,1,35,10a4,4,0,0,1,2-.45,3.75,3.75,0,0,1,1.72.38A3.59,3.59,0,0,1,39.91,11a5,5,0,0,1,.79,1.69A8.47,8.47,0,0,1,41,14.95Zm-1.17-.21a8,8,0,0,0-.18-1.72,4.22,4.22,0,0,0-.55-1.39,2.66,2.66,0,0,0-2.37-1.26,3.49,3.49,0,0,0-1.17.18,3,3,0,0,0-.88.48,3,3,0,0,0-.62.69,4.16,4.16,0,0,0-.41.81v4.77a3.91,3.91,0,0,0,.46.79,3,3,0,0,0,.66.63,3,3,0,0,0,.87.42,3.75,3.75,0,0,0,1.11.15,2.71,2.71,0,0,0,1.37-.33,2.78,2.78,0,0,0,1-.92,4.22,4.22,0,0,0,.56-1.38,7.74,7.74,0,0,0,.18-1.72Z"/><path class="cls-1" d="M47.34,20.52a4.64,4.64,0,0,1-1.9-.39,4.46,4.46,0,0,1-1.5-1.07,4.93,4.93,0,0,1-1-1.64,5.93,5.93,0,0,1-.35-2.08v-.42A6.34,6.34,0,0,1,43,12.72,5.22,5.22,0,0,1,44,11,4.46,4.46,0,0,1,45.4,9.95a4,4,0,0,1,1.72-.38,4.21,4.21,0,0,1,1.79.36,3.67,3.67,0,0,1,1.31,1A4.4,4.4,0,0,1,51,12.47a6.57,6.57,0,0,1,.27,1.94v.71H43.76v.22A5,5,0,0,0,44,17a4.11,4.11,0,0,0,.74,1.33,3.51,3.51,0,0,0,1.14.89,3.29,3.29,0,0,0,1.47.33A3.8,3.8,0,0,0,49,19.2a3.66,3.66,0,0,0,1.3-1.09l.73.56a5,5,0,0,1-.61.72,3.61,3.61,0,0,1-.81.6,4.29,4.29,0,0,1-1,.4A5.23,5.23,0,0,1,47.34,20.52Zm-.21-10a3,3,0,0,0-1.23.25,3.08,3.08,0,0,0-1,.72,3.85,3.85,0,0,0-.71,1.13,5.44,5.44,0,0,0-.38,1.46h6.34V14a4.68,4.68,0,0,0-.21-1.28,3.41,3.41,0,0,0-.57-1.1,2.73,2.73,0,0,0-2.23-1.05Z"/><path class="cls-1" d="M59.95,20.33a3.28,3.28,0,0,1-.15-.67q-.05-.4-.07-.81A4.17,4.17,0,0,1,58.29,20a4.87,4.87,0,0,1-1,.36,4.68,4.68,0,0,1-1.16.14,4.13,4.13,0,0,1-1.4-.22,3.12,3.12,0,0,1-1.07-.63,2.82,2.82,0,0,1-.69-1,3.06,3.06,0,0,1,.09-2.58,3,3,0,0,1,1-1.05,4.67,4.67,0,0,1,1.52-.66,8.09,8.09,0,0,1,2-.23h2.17V13A2.32,2.32,0,0,0,59,11.2a2.89,2.89,0,0,0-2-.65,3.69,3.69,0,0,0-1.13.17,2.85,2.85,0,0,0-.89.46,2.17,2.17,0,0,0-.59.68,1.69,1.69,0,0,0-.21.83H53a2.44,2.44,0,0,1,.29-1.15,3.2,3.2,0,0,1,.83-1,4.22,4.22,0,0,1,1.28-.7A5,5,0,0,1,57,9.57a5.32,5.32,0,0,1,1.55.21,3.37,3.37,0,0,1,1.22.64,2.94,2.94,0,0,1,.79,1.07,3.72,3.72,0,0,1,.28,1.5v5.12c0,.18,0,.37,0,.57s0,.38.06.57.06.36.1.52a2.66,2.66,0,0,0,.14.43v.12Zm-3.67-.84a4.12,4.12,0,0,0,1.18-.16,3.78,3.78,0,0,0,1-.44,3.46,3.46,0,0,0,.76-.66,3.33,3.33,0,0,0,.52-.82V15.08h-2a7.26,7.26,0,0,0-1.61.16,3.91,3.91,0,0,0-1.2.46,2.19,2.19,0,0,0-.75.74,1.88,1.88,0,0,0-.26,1,2,2,0,0,0,.17.81,1.91,1.91,0,0,0,.47.65,2.26,2.26,0,0,0,.75.44A2.85,2.85,0,0,0,56.27,19.49Z"/><path class="cls-1" d="M64.75,9.76l0,1.72a4.48,4.48,0,0,1,.61-.79,3.55,3.55,0,0,1,.78-.61,3.86,3.86,0,0,1,.94-.39,4.18,4.18,0,0,1,1.09-.14,3.86,3.86,0,0,1,2,.49,2.7,2.7,0,0,1,1.18,1.56A4.29,4.29,0,0,1,72,10.8a3.83,3.83,0,0,1,.81-.65,4.12,4.12,0,0,1,1-.43A4.29,4.29,0,0,1,75,9.57a4.53,4.53,0,0,1,1.46.22,2.63,2.63,0,0,1,1.09.69,3.13,3.13,0,0,1,.68,1.21,5.8,5.8,0,0,1,.23,1.76v6.88H77.28V13.43A4.45,4.45,0,0,0,77.1,12a2.14,2.14,0,0,0-.53-.88,1.85,1.85,0,0,0-.82-.45,4,4,0,0,0-1-.13,3.09,3.09,0,0,0-2.24.92,3.07,3.07,0,0,0-.85,1.83v7H70.45v-7A4,4,0,0,0,70.26,12a2.11,2.11,0,0,0-.53-.85,2,2,0,0,0-.82-.46,3.78,3.78,0,0,0-1-.14,3,3,0,0,0-1.17.21,2.9,2.9,0,0,0-.88.56,3.13,3.13,0,0,0-.62.8,5,5,0,0,0-.39.93v7.25H63.63V9.76Z"/><path class="cls-2" d="M0,1.14V26.85H0V28H10.28a14.73,14.73,0,0,0,4.07-.52,8.55,8.55,0,0,0,3.06-1.55,6.74,6.74,0,0,0,1.93-2.56A8.9,8.9,0,0,0,20,19.81a7.78,7.78,0,0,0-.29-2.12,6.28,6.28,0,0,0-.88-1.87,5.93,5.93,0,0,0-1.49-1.48,6.67,6.67,0,0,0-2-.93,6.69,6.69,0,0,0,2.95-2.35,6.09,6.09,0,0,0,1-3.47,8.07,8.07,0,0,0-.67-3.4,6.08,6.08,0,0,0-1.92-2.36A8.66,8.66,0,0,0,13.68.45,16.92,16.92,0,0,0,9.61,0H0V1.14"/><path class="cls-3" d="M14.2,5.57,0,1.14V9.6L6.95,14l7.31-4.63a.35.35,0,0,0,.18-.31V5.9A.35.35,0,0,0,14.2,5.57Z"/><path class="cls-4" d="M6.95,14l7.31-4.63a.35.35,0,0,0,.18-.31V5.9a.35.35,0,0,0-.24-.33L0,1.14V18.37Z"/><polygon class="cls-5" points="0 18.38 6.95 14 0 9.6 0 18.38"/><path class="cls-6" d="M0,26.84,14.2,22.43a.35.35,0,0,0,.24-.33V18.93a.35.35,0,0,0-.18-.31L0,9.6C0,12.5,0,23,0,26.85Z"/><path class="cls-7" d="M0,26.84,14.2,22.43a.35.35,0,0,0,.24-.33V18.93a.35.35,0,0,0-.18-.31L6.95,14,0,18.37v8.48Z"/><g class="cls-8"><path class="cls-9" d="M14.26,18.63l-.2-.13L0,20.14v.78l13.86,1.62.34-.11a.35.35,0,0,0,.24-.33V18.93A.35.35,0,0,0,14.26,18.63Z"/></g><g class="cls-10"><path class="cls-11" d="M14.26,9.37a.35.35,0,0,0,.18-.31V5.9a.35.35,0,0,0-.24-.33L14,5.49,0,7.12V7.9L14,9.54Z"/></g><path class="cls-12" d="M12.79,7.51a1.65,1.65,0,0,0,1.63,1.65.35.35,0,0,0,0-.1V5.9a.35.35,0,0,0,0,0A1.65,1.65,0,0,0,12.79,7.51Z"/><path class="cls-13" d="M12.79,20.53a1.65,1.65,0,0,0,1.64,1.65.35.35,0,0,0,0-.08V18.93a.35.35,0,0,0,0-.05A1.65,1.65,0,0,0,12.79,20.53Z"/><path class="cls-14" d="M14.32,27.4a8.47,8.47,0,0,0,3-1.54,6.66,6.66,0,0,0,1.91-2.54,8.83,8.83,0,0,0,.66-3.52,7.7,7.7,0,0,0-.29-2.1,6.2,6.2,0,0,0-.87-1.85A5.85,5.85,0,0,0,17.3,14.4a6.66,6.66,0,0,0-2.09-.94l-.11,0,.1,0a6.66,6.66,0,0,0,3-2.36,6,6,0,0,0,1-3.43,8,8,0,0,0-.66-3.37,6,6,0,0,0-1.9-2.33,8.58,8.58,0,0,0-3-1.36A16.84,16.84,0,0,0,9.61.08H.08v1L14.22,5.49a.43.43,0,0,1,.3.41V9.06a.43.43,0,0,1-.22.37L7.09,14l7.21,4.56a.43.43,0,0,1,.22.37v3.16a.43.43,0,0,1-.3.41L.08,26.91v1h10.2A14.65,14.65,0,0,0,14.32,27.4Z"/><path class="cls-15" d="M14.32,27.4a8.47,8.47,0,0,0,3-1.54,6.66,6.66,0,0,0,1.91-2.54,8.83,8.83,0,0,0,.66-3.52,7.7,7.7,0,0,0-.29-2.1,6.2,6.2,0,0,0-.87-1.85A5.85,5.85,0,0,0,17.3,14.4a6.66,6.66,0,0,0-2.09-.94l-.11,0,.1,0a6.66,6.66,0,0,0,3-2.36,6,6,0,0,0,.54-1h0L14.49,5.74a.43.43,0,0,1,0,.16V9.06a.43.43,0,0,1-.22.37L7.09,14l7.21,4.56a.43.43,0,0,1,.22.37v3.16a.43.43,0,0,1-.3.41L.08,26.91v1h10.2A14.65,14.65,0,0,0,14.32,27.4Z"/><path class="cls-16" d="M19.64,17.71l-.06-.21,0-.1a6.16,6.16,0,0,0-.77-1.54A5.86,5.86,0,0,0,17.3,14.4a6,6,0,0,0-1-.56h0L16,13.73l-.23-.09-.57-.18-.11,0,.1,0,.43-.2.09,0,.39-.21.06,0,.33-.21.06,0,.34-.25.07-.06.31-.26h0L14.48,9.23v0l0,.08,0,0-.1.08L7.09,14l7.21,4.56a.43.43,0,0,1,.22.37v3.16a.43.43,0,0,1-.3.41L.08,26.91v1h10.2a14.65,14.65,0,0,0,4-.52,8.47,8.47,0,0,0,3-1.54,6.66,6.66,0,0,0,1.91-2.54,8.83,8.83,0,0,0,.66-3.52A7.7,7.7,0,0,0,19.64,17.71Z"/><path class="cls-16" d="M17.36,25.87a6.64,6.64,0,0,0,1.85-2.4l-4.75-4.75a.43.43,0,0,1,.06.22v3.16a.43.43,0,0,1-.3.41L.08,26.91v1h10.2a14.65,14.65,0,0,0,4-.52A8.47,8.47,0,0,0,17.36,25.87Z"/><path class="cls-17" d="M10.28,28H0V26.85H0L14.2,22.43a.35.35,0,0,0,.24-.33V18.93a.35.35,0,0,0-.18-.31L6.95,14,7,14l7.26-4.59a.35.35,0,0,0,.18-.31V5.9a.35.35,0,0,0-.24-.33L0,1.14V0H9.61a16.92,16.92,0,0,1,4.07.45,8.66,8.66,0,0,1,3.06,1.38,6.08,6.08,0,0,1,1.92,2.36,8.07,8.07,0,0,1,.67,3.4,6.09,6.09,0,0,1-1,3.47,6.69,6.69,0,0,1-2.95,2.35,6.67,6.67,0,0,1,2,.93,5.93,5.93,0,0,1,1.49,1.48,6.28,6.28,0,0,1,.88,1.87h0A7.78,7.78,0,0,1,20,19.81a8.9,8.9,0,0,1-.66,3.55,6.74,6.74,0,0,1-1.93,2.56,8.55,8.55,0,0,1-3.06,1.55A14.73,14.73,0,0,1,10.28,28ZM.08,27.92h10.2a14.65,14.65,0,0,0,4-.52,8.47,8.47,0,0,0,3-1.54,6.66,6.66,0,0,0,1.91-2.54,8.83,8.83,0,0,0,.66-3.52,7.7,7.7,0,0,0-.29-2.1h0a6.2,6.2,0,0,0-.87-1.85A5.85,5.85,0,0,0,17.3,14.4a6.66,6.66,0,0,0-2.09-.94l-.11,0,.1,0a6.66,6.66,0,0,0,3-2.36,6,6,0,0,0,1-3.43,8,8,0,0,0-.66-3.37,6,6,0,0,0-1.9-2.33,8.58,8.58,0,0,0-3-1.36A16.84,16.84,0,0,0,9.61.08H.08v1L14.22,5.49a.43.43,0,0,1,.3.41V9.06a.43.43,0,0,1-.22.37L7.09,14l7.21,4.56a.43.43,0,0,1,.22.37v3.16a.43.43,0,0,1-.3.41L.08,26.91Z"/><path class="cls-18" d="M17.36,25.87l.36-.32-3.25-3.25a.43.43,0,0,1-.25.21L.08,26.91v1h10.2a14.65,14.65,0,0,0,4-.52A8.47,8.47,0,0,0,17.36,25.87Z"/></g></g></svg>