<svg xmlns="http://www.w3.org/2000/svg" xmlns:xlink="http://www.w3.org/1999/xlink" viewBox="0 0 46.08 52.12"><defs><style>.cls-1,.cls-13{fill:#ff6d00;}.cls-1{stroke:#ff6d00;stroke-miterlimit:10;stroke-width:0.08px;}.cls-11,.cls-2,.cls-7,.cls-9{fill:#fff;}.cls-2{opacity:0.8;}.cls-3{fill:#ffc400;}.cls-4{opacity:0.65;}.cls-5{fill:#ffe082;}.cls-6{fill:url(#linear-gradient);}.cls-7{opacity:0.9;}.cls-8{fill:url(#linear-gradient-2);}.cls-10{opacity:0.7;}.cls-11{opacity:0.6;}.cls-12{fill:url(#linear-gradient-3);}</style><linearGradient id="linear-gradient" x1="27.47" y1="9.11" x2="27.48" y2="9.11" gradientUnits="userSpaceOnUse"><stop offset="0" stop-color="#fff" stop-opacity="0.1"/><stop offset="0.01" stop-color="#fff" stop-opacity="0.13"/><stop offset="0.07" stop-color="#fff" stop-opacity="0.31"/><stop offset="0.14" stop-color="#fff" stop-opacity="0.48"/><stop offset="0.21" stop-color="#fff" stop-opacity="0.62"/><stop offset="0.29" stop-color="#fff" stop-opacity="0.74"/><stop offset="0.38" stop-color="#fff" stop-opacity="0.83"/><stop offset="0.47" stop-color="#fff" stop-opacity="0.91"/><stop offset="0.58" stop-color="#fff" stop-opacity="0.96"/><stop offset="0.72" stop-color="#fff" stop-opacity="0.99"/><stop offset="1" stop-color="#fff"/></linearGradient><linearGradient id="linear-gradient-2" x1="25.83" y1="7.51" x2="27.48" y2="7.51" xlink:href="#linear-gradient"/><linearGradient id="linear-gradient-3" x1="25.83" y1="20.53" x2="27.48" y2="20.53" gradientUnits="userSpaceOnUse"><stop offset="0" stop-color="#fff" stop-opacity="0"/><stop offset="0.01" stop-color="#fffffc" stop-opacity="0.02"/><stop offset="0.17" stop-color="#fffad1" stop-opacity="0.27"/><stop offset="0.34" stop-color="#fff6ac" stop-opacity="0.49"/><stop offset="0.49" stop-color="#fef38e" stop-opacity="0.68"/><stop offset="0.64" stop-color="#fef076" stop-opacity="0.82"/><stop offset="0.78" stop-color="#feee65" stop-opacity="0.92"/><stop offset="0.9" stop-color="#feed5b" stop-opacity="0.98"/><stop offset="1" stop-color="#feed57"/><stop offset="1" stop-color="#fef17e"/><stop offset="1" stop-color="#fef5a1"/><stop offset="1" stop-color="#fff8be"/><stop offset="1" stop-color="#fffbd6"/><stop offset="1" stop-color="#fffde8"/><stop offset="1" stop-color="#fffef5"/><stop offset="1" stop-color="#fffffd"/><stop offset="1" stop-color="#fff"/></linearGradient></defs><title>beam-logo-3-color-name-bottom</title><g id="Calque_2" data-name="Calque 2"><g id="Layer_1" data-name="Layer 1"><path class="cls-1" d="M8.55,46.71a8.27,8.27,0,0,1-.27,2.18,5.11,5.11,0,0,1-.79,1.69,3.67,3.67,0,0,1-1.27,1.1,3.62,3.62,0,0,1-1.71.4,4.18,4.18,0,0,1-2-.44,3.78,3.78,0,0,1-1.35-1.2l0,1.45H0v-15H1.2v6a3.76,3.76,0,0,1,1.34-1.27,4,4,0,0,1,2-.45,3.75,3.75,0,0,1,1.72.38,3.6,3.6,0,0,1,1.27,1.08,5,5,0,0,1,.79,1.69,8.49,8.49,0,0,1,.27,2.22Zm-1.17-.21a8,8,0,0,0-.18-1.72,4.23,4.23,0,0,0-.55-1.39,2.77,2.77,0,0,0-1-.92,2.78,2.78,0,0,0-1.41-.34,3.5,3.5,0,0,0-1.17.18,3,3,0,0,0-.88.48,3,3,0,0,0-.62.69,4.13,4.13,0,0,0-.41.81v4.77a3.88,3.88,0,0,0,.46.79,3,3,0,0,0,.66.63,3,3,0,0,0,.87.42,3.75,3.75,0,0,0,1.11.15,2.72,2.72,0,0,0,1.37-.33,2.78,2.78,0,0,0,1-.92,4.23,4.23,0,0,0,.56-1.38,7.76,7.76,0,0,0,.18-1.72Z"/><path class="cls-1" d="M14.92,52.08A4.63,4.63,0,0,1,13,51.7a4.45,4.45,0,0,1-1.5-1.07,4.93,4.93,0,0,1-1-1.64,5.93,5.93,0,0,1-.35-2.08v-.42a6.35,6.35,0,0,1,.37-2.21,5.22,5.22,0,0,1,1-1.69A4.45,4.45,0,0,1,13,41.51a4,4,0,0,1,1.72-.38,4.22,4.22,0,0,1,1.79.36,3.69,3.69,0,0,1,1.31,1A4.42,4.42,0,0,1,18.62,44,6.59,6.59,0,0,1,18.89,46v.71H11.35v.22a5,5,0,0,0,.26,1.64,4.11,4.11,0,0,0,.74,1.33,3.5,3.5,0,0,0,1.14.89A3.28,3.28,0,0,0,15,51.1a3.8,3.8,0,0,0,1.66-.34,3.66,3.66,0,0,0,1.3-1.09l.73.56a5.05,5.05,0,0,1-.61.72,3.63,3.63,0,0,1-.81.6,4.31,4.31,0,0,1-1,.4A5.24,5.24,0,0,1,14.92,52.08Zm-.21-10a3,3,0,0,0-1.23.25,3.07,3.07,0,0,0-1,.72,3.84,3.84,0,0,0-.71,1.13,5.43,5.43,0,0,0-.38,1.46h6.34v-.13a4.72,4.72,0,0,0-.21-1.28,3.44,3.44,0,0,0-.57-1.1,2.83,2.83,0,0,0-.93-.77A2.8,2.8,0,0,0,14.71,42.12Z"/><path class="cls-1" d="M27.53,51.89a3.35,3.35,0,0,1-.15-.67q-.05-.4-.07-.81a4.17,4.17,0,0,1-1.44,1.17,4.85,4.85,0,0,1-1,.36,4.67,4.67,0,0,1-1.16.14,4.13,4.13,0,0,1-1.4-.22,3.13,3.13,0,0,1-1.07-.63,2.83,2.83,0,0,1-.69-1,3.06,3.06,0,0,1,.09-2.58,3,3,0,0,1,1-1.05A4.69,4.69,0,0,1,23.12,46a8.11,8.11,0,0,1,2-.23H27.3v-1.2a2.32,2.32,0,0,0-.7-1.78,2.89,2.89,0,0,0-2-.65,3.7,3.7,0,0,0-1.13.17,2.87,2.87,0,0,0-.89.46,2.19,2.19,0,0,0-.59.68,1.7,1.7,0,0,0-.21.83H20.57a2.45,2.45,0,0,1,.29-1.15,3.21,3.21,0,0,1,.83-1,4.24,4.24,0,0,1,1.28-.7,5,5,0,0,1,1.66-.26,5.33,5.33,0,0,1,1.55.21,3.38,3.38,0,0,1,1.22.64,2.93,2.93,0,0,1,.79,1.07,3.71,3.71,0,0,1,.28,1.5v5.12q0,.27,0,.57c0,.2,0,.38.06.57s.06.36.1.52a2.71,2.71,0,0,0,.14.43v.12ZM23.86,51A4.11,4.11,0,0,0,25,50.89a3.78,3.78,0,0,0,1-.44,3.46,3.46,0,0,0,.76-.66A3.31,3.31,0,0,0,27.3,49V46.64h-2a7.27,7.27,0,0,0-1.61.16,3.92,3.92,0,0,0-1.2.46,2.2,2.2,0,0,0-.75.74,1.88,1.88,0,0,0-.26,1,2,2,0,0,0,.17.81,1.92,1.92,0,0,0,.47.65,2.26,2.26,0,0,0,.75.44A2.85,2.85,0,0,0,23.86,51Z"/><path class="cls-1" d="M32.34,41.32l0,1.72a4.54,4.54,0,0,1,.61-.79,3.59,3.59,0,0,1,.78-.61,3.89,3.89,0,0,1,.94-.39,4.21,4.21,0,0,1,1.09-.14,3.86,3.86,0,0,1,2,.49A2.7,2.7,0,0,1,39,43.18a4.34,4.34,0,0,1,.61-.82,3.88,3.88,0,0,1,.81-.65,4.16,4.16,0,0,1,1-.43,4.31,4.31,0,0,1,1.18-.16,4.53,4.53,0,0,1,1.46.22,2.63,2.63,0,0,1,1.09.69,3.13,3.13,0,0,1,.68,1.21A5.8,5.8,0,0,1,46,45v6.88H44.87V45a4.44,4.44,0,0,0-.19-1.39,2.14,2.14,0,0,0-.53-.88,1.86,1.86,0,0,0-.82-.45,4,4,0,0,0-1-.13,3.09,3.09,0,0,0-2.24.92,3.07,3.07,0,0,0-.85,1.83v7H38v-7a4,4,0,0,0-.19-1.32,2.1,2.1,0,0,0-.53-.85,2,2,0,0,0-.82-.46,3.79,3.79,0,0,0-1-.14,3.05,3.05,0,0,0-1.17.21,2.92,2.92,0,0,0-.88.56,3.16,3.16,0,0,0-.62.8,5,5,0,0,0-.39.93v7.25H31.22V41.32Z"/><path class="cls-2" d="M13,1.14V26.85h0V28H23.32a14.73,14.73,0,0,0,4.07-.52,8.55,8.55,0,0,0,3.06-1.55,6.74,6.74,0,0,0,1.93-2.56A8.9,8.9,0,0,0,33,19.81a7.78,7.78,0,0,0-.29-2.12,6.28,6.28,0,0,0-.88-1.87,5.93,5.93,0,0,0-1.49-1.48,6.67,6.67,0,0,0-2-.93,6.69,6.69,0,0,0,2.95-2.35,6.09,6.09,0,0,0,1-3.47,8.07,8.07,0,0,0-.67-3.4,6.08,6.08,0,0,0-1.92-2.36A8.66,8.66,0,0,0,26.72.45,16.92,16.92,0,0,0,22.65,0H13V1.14"/><path class="cls-3" d="M27.3,18.63,20,14,27.3,9.37a.35.35,0,0,0,.18-.31V5.9a.35.35,0,0,0-.24-.33L13,1.14V26.85h0l14.17-4.42a.35.35,0,0,0,.24-.33V18.93A.35.35,0,0,0,27.3,18.63Z"/><g class="cls-4"><path class="cls-5" d="M25.83,7.51a1.65,1.65,0,0,1,1.64-1.65.35.35,0,0,0-.24-.3L27,5.49,13,7.12V7.9L27,9.54l.26-.17a.35.35,0,0,0,.17-.21A1.65,1.65,0,0,1,25.83,7.51Z"/></g><g class="cls-4"><path class="cls-6" d="M27.47,9.16a.35.35,0,0,0,0-.09A.35.35,0,0,1,27.47,9.16Z"/></g><path class="cls-7" d="M27.48,5.87h0a.34.34,0,0,1,0,0S27.48,5.88,27.48,5.87Z"/><polygon class="cls-7" points="27.47 9.16 27.47 9.16 27.47 9.16 27.47 9.16"/><g class="cls-4"><path class="cls-8" d="M27.48,5.9a.34.34,0,0,0,0,0,1.65,1.65,0,0,0,0,3.29h0a.35.35,0,0,0,0-.09Z"/></g><path class="cls-9" d="M27.48,5.9a.34.34,0,0,0,0,0,1.65,1.65,0,0,0,0,3.29h0a.35.35,0,0,0,0-.09Z"/><g class="cls-10"><path class="cls-5" d="M25.83,20.53a1.65,1.65,0,0,1,1.64-1.65.35.35,0,0,0-.17-.25l-.2-.13L13,20.14v.78L26.9,22.53l.34-.11a.35.35,0,0,0,.23-.25A1.65,1.65,0,0,1,25.83,20.53Z"/></g><path class="cls-11" d="M27.47,22.17a.35.35,0,0,0,0-.08.35.35,0,0,1,0,.08Z"/><path class="cls-11" d="M27.48,18.88h0a.34.34,0,0,1,0,.05A.35.35,0,0,0,27.48,18.88Z"/><g class="cls-10"><path class="cls-12" d="M27.47,18.88a1.65,1.65,0,0,0,0,3.29.35.35,0,0,0,0-.08V18.93A.34.34,0,0,0,27.47,18.88Z"/></g><path class="cls-9" d="M27.47,18.88a1.65,1.65,0,0,0,0,3.29.35.35,0,0,0,0-.08V18.93A.34.34,0,0,0,27.47,18.88Z"/><path class="cls-13" d="M32.75,17.69a6.28,6.28,0,0,0-.88-1.87,5.93,5.93,0,0,0-1.49-1.48,6.67,6.67,0,0,0-2-.93,6.69,6.69,0,0,0,2.95-2.35,6.09,6.09,0,0,0,1-3.47,8.07,8.07,0,0,0-.67-3.4,6.08,6.08,0,0,0-1.92-2.36A8.66,8.66,0,0,0,26.72.45,16.92,16.92,0,0,0,22.65,0H13V1.14l14.2,4.42a.35.35,0,0,1,.24.33V9.06a.35.35,0,0,1-.18.31L20,14,20,14l7.31,4.63a.35.35,0,0,1,.18.31v3.16a.35.35,0,0,1-.24.33L13.07,26.84h0V28H23.32a14.73,14.73,0,0,0,4.07-.52,8.55,8.55,0,0,0,3.06-1.55,6.74,6.74,0,0,0,1.93-2.56A8.9,8.9,0,0,0,33,19.81,7.78,7.78,0,0,0,32.75,17.69Z"/></g></g></svg>