<svg xmlns="http://www.w3.org/2000/svg" xmlns:xlink="http://www.w3.org/1999/xlink" viewBox="0 0 46 52.55"><defs><style>.cls-1,.cls-14{fill:#ff6d00;}.cls-12,.cls-13,.cls-2{fill:#fff;}.cls-18,.cls-2{opacity:0.8;}.cls-3{fill:#fee900;}.cls-4{fill:url(#fond_jaune_1);}.cls-5,.cls-6{opacity:0.75;}.cls-5{fill:url(#linear-gradient);}.cls-6{fill:url(#linear-gradient-2);}.cls-7{fill:url(#linear-gradient-3);}.cls-8{opacity:0.7;}.cls-9{fill:url(#linear-gradient-4);}.cls-10{opacity:0.65;}.cls-11{fill:url(#linear-gradient-5);}.cls-12{opacity:0.9;}.cls-13{opacity:0.6;}.cls-14{opacity:0.85;}.cls-15,.cls-16,.cls-18{fill:#e64a19;}.cls-15{opacity:0.25;}.cls-16{opacity:0.35;}.cls-17{fill:url(#linear-gradient-6);}</style><linearGradient id="fond_jaune_1" x1="12.47" y1="9.76" x2="26.91" y2="9.76" gradientUnits="userSpaceOnUse"><stop offset="0" stop-color="#fff176" stop-opacity="0.7"/><stop offset="0.06" stop-color="#ffef5f" stop-opacity="0.68"/><stop offset="0.17" stop-color="#ffed3c" stop-opacity="0.65"/><stop offset="0.3" stop-color="#feeb21" stop-opacity="0.63"/><stop offset="0.44" stop-color="#feea0e" stop-opacity="0.61"/><stop offset="0.63" stop-color="#fee903" stop-opacity="0.6"/><stop offset="1" stop-color="#fee900" stop-opacity="0.6"/></linearGradient><linearGradient id="linear-gradient" x1="12.47" y1="13.99" x2="19.41" y2="13.99" gradientUnits="userSpaceOnUse"><stop offset="0" stop-color="#ffc400"/><stop offset="0.14" stop-color="#fecd00"/><stop offset="0.37" stop-color="#fed400"/><stop offset="1" stop-color="#fed600"/></linearGradient><linearGradient id="linear-gradient-2" x1="12.47" y1="18.23" x2="26.91" y2="18.23" xlink:href="#linear-gradient"/><linearGradient id="linear-gradient-3" x1="12.47" y1="20.42" x2="26.91" y2="20.42" gradientUnits="userSpaceOnUse"><stop offset="0" stop-color="#ffab00" stop-opacity="0.7"/><stop offset="0.02" stop-color="#ffad04" stop-opacity="0.72"/><stop offset="0.14" stop-color="#fdb413" stop-opacity="0.82"/><stop offset="0.27" stop-color="#fcb91e" stop-opacity="0.9"/><stop offset="0.42" stop-color="#fcbd27" stop-opacity="0.96"/><stop offset="0.62" stop-color="#fbbf2c" stop-opacity="0.99"/><stop offset="1" stop-color="#fbc02d"/></linearGradient><linearGradient id="linear-gradient-4" x1="12.47" y1="20.52" x2="26.91" y2="20.52" gradientUnits="userSpaceOnUse"><stop offset="0" stop-color="#fff" stop-opacity="0"/><stop offset="0.01" stop-color="#fffffc" stop-opacity="0.02"/><stop offset="0.17" stop-color="#fffad1" stop-opacity="0.27"/><stop offset="0.34" stop-color="#fff6ac" stop-opacity="0.49"/><stop offset="0.49" stop-color="#fef38e" stop-opacity="0.68"/><stop offset="0.64" stop-color="#fef076" stop-opacity="0.82"/><stop offset="0.78" stop-color="#feee65" stop-opacity="0.92"/><stop offset="0.9" stop-color="#feed5b" stop-opacity="0.98"/><stop offset="1" stop-color="#feed57"/><stop offset="1" stop-color="#fef17e"/><stop offset="1" stop-color="#fef5a1"/><stop offset="1" stop-color="#fff8be"/><stop offset="1" stop-color="#fffbd6"/><stop offset="1" stop-color="#fffde8"/><stop offset="1" stop-color="#fffef5"/><stop offset="1" stop-color="#fffffd"/><stop offset="1" stop-color="#fff"/></linearGradient><linearGradient id="linear-gradient-5" x1="12.47" y1="7.52" x2="26.91" y2="7.52" gradientUnits="userSpaceOnUse"><stop offset="0" stop-color="#fff" stop-opacity="0.1"/><stop offset="0.01" stop-color="#fff" stop-opacity="0.13"/><stop offset="0.07" stop-color="#fff" stop-opacity="0.31"/><stop offset="0.14" stop-color="#fff" stop-opacity="0.48"/><stop offset="0.21" stop-color="#fff" stop-opacity="0.62"/><stop offset="0.29" stop-color="#fff" stop-opacity="0.74"/><stop offset="0.38" stop-color="#fff" stop-opacity="0.83"/><stop offset="0.47" stop-color="#fff" stop-opacity="0.91"/><stop offset="0.58" stop-color="#fff" stop-opacity="0.96"/><stop offset="0.72" stop-color="#fff" stop-opacity="0.99"/><stop offset="1" stop-color="#fff"/></linearGradient><linearGradient id="linear-gradient-6" x1="12.47" y1="14" x2="32.47" y2="14" gradientUnits="userSpaceOnUse"><stop offset="0" stop-color="#ffca28"/><stop offset="0.25" stop-color="#f3931a"/><stop offset="0.49" stop-color="#ea670f"/><stop offset="0.7" stop-color="#e34707"/><stop offset="0.88" stop-color="#df3302"/><stop offset="1" stop-color="#dd2c00"/></linearGradient></defs><title>beam-logo-full-color-name-bottom</title><g id="Calque_2" data-name="Calque 2"><g id="Layer_1" data-name="Layer 1"><path class="cls-1" d="M8.52,47.18a8.28,8.28,0,0,1-.27,2.18,5.13,5.13,0,0,1-.79,1.69,3.68,3.68,0,0,1-1.27,1.1,3.62,3.62,0,0,1-1.71.4,4.18,4.18,0,0,1-2-.44,3.78,3.78,0,0,1-1.35-1.2l0,1.45H0v-15H1.16v6A3.76,3.76,0,0,1,2.5,42a4,4,0,0,1,2-.45A3.75,3.75,0,0,1,6.18,42a3.6,3.6,0,0,1,1.27,1.08,5,5,0,0,1,.79,1.69A8.49,8.49,0,0,1,8.52,47ZM7.34,47a8,8,0,0,0-.18-1.72,4.22,4.22,0,0,0-.55-1.39,2.77,2.77,0,0,0-1-.92,2.78,2.78,0,0,0-1.41-.34,3.47,3.47,0,0,0-1.17.18,2.92,2.92,0,0,0-.88.48,3,3,0,0,0-.62.69,4.08,4.08,0,0,0-.41.81v4.77a3.91,3.91,0,0,0,.46.79,3,3,0,0,0,.66.63,3.09,3.09,0,0,0,.87.42,3.78,3.78,0,0,0,1.11.15,2.73,2.73,0,0,0,1.37-.33,2.79,2.79,0,0,0,1-.92,4.24,4.24,0,0,0,.56-1.38,7.78,7.78,0,0,0,.18-1.72Z"/><path class="cls-1" d="M14.89,52.55a4.65,4.65,0,0,1-1.9-.39,4.47,4.47,0,0,1-1.5-1.07,4.94,4.94,0,0,1-1-1.64,5.94,5.94,0,0,1-.35-2.08V47a6.34,6.34,0,0,1,.37-2.21,5.2,5.2,0,0,1,1-1.69A4.44,4.44,0,0,1,12.95,42a4,4,0,0,1,1.72-.38,4.21,4.21,0,0,1,1.79.36,3.68,3.68,0,0,1,1.31,1,4.41,4.41,0,0,1,.81,1.53,6.58,6.58,0,0,1,.27,1.94v.71H11.31v.22A5,5,0,0,0,11.58,49a4.13,4.13,0,0,0,.74,1.33,3.53,3.53,0,0,0,1.14.89,3.3,3.3,0,0,0,1.47.33,3.81,3.81,0,0,0,1.66-.34,3.68,3.68,0,0,0,1.3-1.09l.73.56a5.11,5.11,0,0,1-.61.72,3.69,3.69,0,0,1-.81.6,4.35,4.35,0,0,1-1,.4A5.24,5.24,0,0,1,14.89,52.55Zm-.21-10a3,3,0,0,0-1.23.25,3.06,3.06,0,0,0-1,.72,3.84,3.84,0,0,0-.71,1.13,5.42,5.42,0,0,0-.38,1.46h6.34V46a4.71,4.71,0,0,0-.21-1.28,3.42,3.42,0,0,0-.57-1.1,2.73,2.73,0,0,0-2.23-1.05Z"/><path class="cls-1" d="M27.5,52.36a3.36,3.36,0,0,1-.15-.67q-.05-.4-.07-.81a4.17,4.17,0,0,1-1.44,1.17,5,5,0,0,1-1,.36,4.72,4.72,0,0,1-1.16.14,4.16,4.16,0,0,1-1.4-.22,3.16,3.16,0,0,1-1.07-.63,2.85,2.85,0,0,1-.69-1,3.06,3.06,0,0,1,.09-2.58,3,3,0,0,1,1-1.05,4.65,4.65,0,0,1,1.52-.66,8.06,8.06,0,0,1,2-.23h2.17V45a2.31,2.31,0,0,0-.7-1.78,2.88,2.88,0,0,0-2-.65,3.67,3.67,0,0,0-1.13.17,2.85,2.85,0,0,0-.89.46,2.18,2.18,0,0,0-.59.68,1.7,1.7,0,0,0-.21.83H20.53a2.44,2.44,0,0,1,.29-1.15,3.2,3.2,0,0,1,.83-1,4.22,4.22,0,0,1,1.28-.7,5,5,0,0,1,1.66-.26,5.3,5.3,0,0,1,1.55.21,3.35,3.35,0,0,1,1.22.64,2.93,2.93,0,0,1,.79,1.07,3.71,3.71,0,0,1,.28,1.5v5.12c0,.18,0,.37,0,.57s0,.38.06.57.06.36.1.52a2.74,2.74,0,0,0,.14.43v.12Zm-3.67-.84A4.11,4.11,0,0,0,25,51.36a3.81,3.81,0,0,0,1-.44,3.51,3.51,0,0,0,.76-.66,3.33,3.33,0,0,0,.52-.82V47.11h-2a7.27,7.27,0,0,0-1.61.16,3.9,3.9,0,0,0-1.2.46,2.18,2.18,0,0,0-.75.74,1.88,1.88,0,0,0-.26,1,2,2,0,0,0,.17.81,1.93,1.93,0,0,0,.47.65,2.26,2.26,0,0,0,.75.44A2.85,2.85,0,0,0,23.82,51.52Z"/><path class="cls-1" d="M32.3,41.79l0,1.72a4.47,4.47,0,0,1,.61-.79,3.56,3.56,0,0,1,.78-.61,3.85,3.85,0,0,1,.94-.39,4.17,4.17,0,0,1,1.09-.14,3.85,3.85,0,0,1,2,.49,2.69,2.69,0,0,1,1.18,1.56,4.31,4.31,0,0,1,.61-.82,3.81,3.81,0,0,1,.81-.65,4.09,4.09,0,0,1,1-.43,4.27,4.27,0,0,1,1.18-.16,4.53,4.53,0,0,1,1.46.22,2.62,2.62,0,0,1,1.09.69,3.12,3.12,0,0,1,.68,1.21A5.8,5.8,0,0,1,46,45.47v6.88H44.83V45.46a4.43,4.43,0,0,0-.19-1.39,2.12,2.12,0,0,0-.53-.88,1.84,1.84,0,0,0-.82-.45,4,4,0,0,0-1-.13,3.09,3.09,0,0,0-2.24.92,3.07,3.07,0,0,0-.85,1.83v7H38v-7a4,4,0,0,0-.19-1.32,2.1,2.1,0,0,0-.53-.85,2,2,0,0,0-.82-.46,3.75,3.75,0,0,0-1-.14,3,3,0,0,0-1.17.21,2.9,2.9,0,0,0-.88.56,3.14,3.14,0,0,0-.62.8,5,5,0,0,0-.39.93v7.25H31.18V41.79Z"/><path class="cls-2" d="M12.47,1.14V26.85h0V28H22.75a14.73,14.73,0,0,0,4.07-.52,8.55,8.55,0,0,0,3.06-1.55,6.74,6.74,0,0,0,1.93-2.56,8.9,8.9,0,0,0,.66-3.55,7.78,7.78,0,0,0-.29-2.12,6.28,6.28,0,0,0-.88-1.87,5.93,5.93,0,0,0-1.49-1.48,6.67,6.67,0,0,0-2-.93,6.69,6.69,0,0,0,2.95-2.35,6.09,6.09,0,0,0,1-3.47,8.07,8.07,0,0,0-.67-3.4,6.08,6.08,0,0,0-1.92-2.36A8.66,8.66,0,0,0,26.15.45,16.92,16.92,0,0,0,22.07,0H12.47V1.14"/><path class="cls-3" d="M26.67,5.57,12.47,1.14V9.6L19.41,14l7.31-4.63a.35.35,0,0,0,.18-.31V5.9A.35.35,0,0,0,26.67,5.57Z"/><path class="cls-4" d="M19.41,14l7.31-4.63a.35.35,0,0,0,.18-.31V5.9a.35.35,0,0,0-.24-.33L12.47,1.14V18.37Z"/><polygon class="cls-5" points="12.47 18.38 19.41 14 12.47 9.6 12.47 18.38"/><path class="cls-6" d="M12.49,26.84l14.17-4.42a.35.35,0,0,0,.24-.33V18.93a.35.35,0,0,0-.18-.31l-14.26-9c0,2.9,0,13.4,0,17.25Z"/><path class="cls-7" d="M12.49,26.84l14.17-4.42a.35.35,0,0,0,.24-.33V18.93a.35.35,0,0,0-.18-.31L19.41,14l-6.95,4.38v8.48Z"/><g class="cls-8"><path class="cls-9" d="M26.73,18.63l-.2-.13L12.47,20.14v.78l13.86,1.62.34-.11a.35.35,0,0,0,.24-.33V18.93A.35.35,0,0,0,26.73,18.63Z"/></g><g class="cls-10"><path class="cls-11" d="M26.73,9.37a.35.35,0,0,0,.18-.31V5.9a.35.35,0,0,0-.24-.33l-.24-.07-14,1.63V7.9l14,1.63Z"/></g><path class="cls-12" d="M25.26,7.51a1.65,1.65,0,0,0,1.63,1.65.35.35,0,0,0,0-.1V5.9a.35.35,0,0,0,0,0A1.65,1.65,0,0,0,25.26,7.51Z"/><path class="cls-13" d="M25.26,20.53a1.65,1.65,0,0,0,1.64,1.65.35.35,0,0,0,0-.08V18.93a.35.35,0,0,0,0-.05A1.65,1.65,0,0,0,25.26,20.53Z"/><path class="cls-14" d="M26.79,27.4a8.47,8.47,0,0,0,3-1.54,6.66,6.66,0,0,0,1.91-2.54,8.83,8.83,0,0,0,.66-3.52,7.7,7.7,0,0,0-.29-2.1,6.2,6.2,0,0,0-.87-1.85,5.85,5.85,0,0,0-1.47-1.46,6.66,6.66,0,0,0-2.09-.94l-.11,0,.1,0a6.66,6.66,0,0,0,3-2.36,6,6,0,0,0,1-3.43,8,8,0,0,0-.66-3.37,6,6,0,0,0-1.9-2.33,8.58,8.58,0,0,0-3-1.36A16.84,16.84,0,0,0,22.07.08H12.55v1L26.69,5.49a.43.43,0,0,1,.3.41V9.06a.43.43,0,0,1-.22.37L19.56,14l7.21,4.56a.43.43,0,0,1,.22.37v3.16a.43.43,0,0,1-.3.41L12.55,26.91v1h10.2A14.65,14.65,0,0,0,26.79,27.4Z"/><path class="cls-15" d="M26.79,27.4a8.47,8.47,0,0,0,3-1.54,6.66,6.66,0,0,0,1.91-2.54,8.83,8.83,0,0,0,.66-3.52,7.7,7.7,0,0,0-.29-2.1,6.2,6.2,0,0,0-.87-1.85,5.85,5.85,0,0,0-1.47-1.46,6.66,6.66,0,0,0-2.09-.94l-.11,0,.1,0a6.66,6.66,0,0,0,3-2.36,6,6,0,0,0,.54-1h0L27,5.74a.43.43,0,0,1,0,.16V9.06a.43.43,0,0,1-.22.37L19.56,14l7.21,4.56a.43.43,0,0,1,.22.37v3.16a.43.43,0,0,1-.3.41L12.55,26.91v1h10.2A14.65,14.65,0,0,0,26.79,27.4Z"/><path class="cls-16" d="M32.1,17.71,32,17.5l0-.1a6.16,6.16,0,0,0-.77-1.54,5.86,5.86,0,0,0-1.47-1.46,6,6,0,0,0-1-.56h0l-.29-.12-.23-.09-.57-.18-.11,0,.1,0,.43-.2.09,0,.39-.21.06,0,.33-.21.06,0,.34-.25.07-.06.31-.26h0L27,9.23v0l0,.08,0,0-.1.08L19.56,14l7.21,4.56a.43.43,0,0,1,.22.37v3.16a.43.43,0,0,1-.3.41L12.55,26.91v1h10.2a14.65,14.65,0,0,0,4-.52,8.47,8.47,0,0,0,3-1.54,6.66,6.66,0,0,0,1.91-2.54,8.83,8.83,0,0,0,.66-3.52A7.7,7.7,0,0,0,32.1,17.71Z"/><path class="cls-16" d="M29.83,25.87a6.64,6.64,0,0,0,1.85-2.4l-4.75-4.75a.43.43,0,0,1,.06.22v3.16a.43.43,0,0,1-.3.41L12.55,26.91v1h10.2a14.65,14.65,0,0,0,4-.52A8.47,8.47,0,0,0,29.83,25.87Z"/><path class="cls-17" d="M22.75,28H12.47V26.85h0l14.17-4.42a.35.35,0,0,0,.24-.33V18.93a.35.35,0,0,0-.18-.31L19.41,14l.05,0,7.26-4.59a.35.35,0,0,0,.18-.31V5.9a.35.35,0,0,0-.24-.33L12.47,1.14V0h9.61a16.92,16.92,0,0,1,4.07.45,8.66,8.66,0,0,1,3.06,1.38,6.08,6.08,0,0,1,1.92,2.36,8.07,8.07,0,0,1,.67,3.4,6.09,6.09,0,0,1-1,3.47,6.69,6.69,0,0,1-2.95,2.35,6.67,6.67,0,0,1,2,.93,5.93,5.93,0,0,1,1.49,1.48,6.28,6.28,0,0,1,.88,1.87h0a7.78,7.78,0,0,1,.29,2.12,8.9,8.9,0,0,1-.66,3.55,6.74,6.74,0,0,1-1.93,2.56,8.55,8.55,0,0,1-3.06,1.55A14.73,14.73,0,0,1,22.75,28Zm-10.2-.08h10.2a14.65,14.65,0,0,0,4-.52,8.47,8.47,0,0,0,3-1.54,6.66,6.66,0,0,0,1.91-2.54,8.83,8.83,0,0,0,.66-3.52,7.7,7.7,0,0,0-.29-2.1h0a6.2,6.2,0,0,0-.87-1.85,5.85,5.85,0,0,0-1.47-1.46,6.66,6.66,0,0,0-2.09-.94l-.11,0,.1,0a6.66,6.66,0,0,0,3-2.36,6,6,0,0,0,1-3.43,8,8,0,0,0-.66-3.37,6,6,0,0,0-1.9-2.33,8.58,8.58,0,0,0-3-1.36A16.84,16.84,0,0,0,22.07.08H12.55v1L26.69,5.49a.43.43,0,0,1,.3.41V9.06a.43.43,0,0,1-.22.37L19.56,14l7.21,4.56a.43.43,0,0,1,.22.37v3.16a.43.43,0,0,1-.3.41L12.55,26.91Z"/><path class="cls-18" d="M29.83,25.87l.36-.32-3.25-3.25a.43.43,0,0,1-.25.21L12.55,26.91v1h10.2a14.65,14.65,0,0,0,4-.52A8.47,8.47,0,0,0,29.83,25.87Z"/></g></g></svg>