<svg xmlns="http://www.w3.org/2000/svg" xmlns:xlink="http://www.w3.org/1999/xlink" viewBox="0 0 104.31 146.01"><defs><style>.cls-1,.cls-11,.cls-12{fill:#fff;}.cls-1,.cls-17{opacity:0.8;}.cls-2{fill:#fee900;}.cls-3{fill:url(#fond_jaune_1);}.cls-4,.cls-5{opacity:0.75;}.cls-4{fill:url(#linear-gradient);}.cls-5{fill:url(#linear-gradient-2);}.cls-6{fill:url(#linear-gradient-3);}.cls-7{opacity:0.7;}.cls-8{fill:url(#linear-gradient-4);}.cls-9{opacity:0.65;}.cls-10{fill:url(#linear-gradient-5);}.cls-11{opacity:0.9;}.cls-12{opacity:0.6;}.cls-13{fill:#ff6d00;opacity:0.85;}.cls-14,.cls-15,.cls-17{fill:#e64a19;}.cls-14{opacity:0.25;}.cls-15{opacity:0.35;}.cls-16{fill:url(#linear-gradient-6);}</style><linearGradient id="fond_jaune_1" y1="50.9" x2="75.31" y2="50.9" gradientUnits="userSpaceOnUse"><stop offset="0" stop-color="#fff176" stop-opacity="0.7"/><stop offset="0.06" stop-color="#ffef5f" stop-opacity="0.68"/><stop offset="0.17" stop-color="#ffed3c" stop-opacity="0.65"/><stop offset="0.3" stop-color="#feeb21" stop-opacity="0.63"/><stop offset="0.44" stop-color="#feea0e" stop-opacity="0.61"/><stop offset="0.63" stop-color="#fee903" stop-opacity="0.6"/><stop offset="1" stop-color="#fee900" stop-opacity="0.6"/></linearGradient><linearGradient id="linear-gradient" y1="72.95" x2="36.23" y2="72.95" gradientUnits="userSpaceOnUse"><stop offset="0" stop-color="#ffc400"/><stop offset="0.14" stop-color="#fecd00"/><stop offset="0.37" stop-color="#fed400"/><stop offset="1" stop-color="#fed600"/></linearGradient><linearGradient id="linear-gradient-2" y1="95.06" x2="75.31" y2="95.06" xlink:href="#linear-gradient"/><linearGradient id="linear-gradient-3" y1="106.52" x2="75.31" y2="106.52" gradientUnits="userSpaceOnUse"><stop offset="0" stop-color="#ffab00" stop-opacity="0.7"/><stop offset="0.02" stop-color="#ffad04" stop-opacity="0.72"/><stop offset="0.14" stop-color="#fdb413" stop-opacity="0.82"/><stop offset="0.27" stop-color="#fcb91e" stop-opacity="0.9"/><stop offset="0.42" stop-color="#fcbd27" stop-opacity="0.96"/><stop offset="0.62" stop-color="#fbbf2c" stop-opacity="0.99"/><stop offset="1" stop-color="#fbc02d"/></linearGradient><linearGradient id="linear-gradient-4" y1="106.99" x2="75.31" y2="106.99" gradientUnits="userSpaceOnUse"><stop offset="0" stop-color="#fff" stop-opacity="0"/><stop offset="0.01" stop-color="#fffffc" stop-opacity="0.02"/><stop offset="0.17" stop-color="#fffad1" stop-opacity="0.27"/><stop offset="0.34" stop-color="#fff6ac" stop-opacity="0.49"/><stop offset="0.49" stop-color="#fef38e" stop-opacity="0.68"/><stop offset="0.64" stop-color="#fef076" stop-opacity="0.82"/><stop offset="0.78" stop-color="#feee65" stop-opacity="0.92"/><stop offset="0.9" stop-color="#feed5b" stop-opacity="0.98"/><stop offset="1" stop-color="#feed57"/><stop offset="1" stop-color="#fef17e"/><stop offset="1" stop-color="#fef5a1"/><stop offset="1" stop-color="#fff8be"/><stop offset="1" stop-color="#fffbd6"/><stop offset="1" stop-color="#fffde8"/><stop offset="1" stop-color="#fffef5"/><stop offset="1" stop-color="#fffffd"/><stop offset="1" stop-color="#fff"/></linearGradient><linearGradient id="linear-gradient-5" y1="39.19" x2="75.31" y2="39.19" gradientUnits="userSpaceOnUse"><stop offset="0" stop-color="#fff" stop-opacity="0.1"/><stop offset="0.01" stop-color="#fff" stop-opacity="0.13"/><stop offset="0.07" stop-color="#fff" stop-opacity="0.31"/><stop offset="0.14" stop-color="#fff" stop-opacity="0.48"/><stop offset="0.21" stop-color="#fff" stop-opacity="0.62"/><stop offset="0.29" stop-color="#fff" stop-opacity="0.74"/><stop offset="0.38" stop-color="#fff" stop-opacity="0.83"/><stop offset="0.47" stop-color="#fff" stop-opacity="0.91"/><stop offset="0.58" stop-color="#fff" stop-opacity="0.96"/><stop offset="0.72" stop-color="#fff" stop-opacity="0.99"/><stop offset="1" stop-color="#fff"/></linearGradient><linearGradient id="linear-gradient-6" y1="73" x2="104.31" y2="73" gradientUnits="userSpaceOnUse"><stop offset="0" stop-color="#ffca28"/><stop offset="0.25" stop-color="#f3931a"/><stop offset="0.49" stop-color="#ea670f"/><stop offset="0.7" stop-color="#e34707"/><stop offset="0.88" stop-color="#df3302"/><stop offset="1" stop-color="#dd2c00"/></linearGradient></defs><title>beam-logo-full-color-nameless</title><g id="Calque_2" data-name="Calque 2"><g id="Layer_1" data-name="Layer 1"><path class="cls-1" d="M0,6V140H0v6H53.6a76.84,76.84,0,0,0,21.21-2.71,44.58,44.58,0,0,0,16-8.09,35.13,35.13,0,0,0,10.06-13.38,46.43,46.43,0,0,0,3.47-18.53,40.59,40.59,0,0,0-1.51-11.06,32.76,32.76,0,0,0-4.58-9.76,30.92,30.92,0,0,0-7.75-7.7A34.78,34.78,0,0,0,80,70,34.87,34.87,0,0,0,95.37,57.72,31.78,31.78,0,0,0,100.8,39.6a42.07,42.07,0,0,0-3.47-17.74,31.7,31.7,0,0,0-10-12.33,45.17,45.17,0,0,0-16-7.18A88.24,88.24,0,0,0,50.1,0H0V6"/><path class="cls-2" d="M74,29,0,6V50.08L36.23,73,74.36,48.87a1.83,1.83,0,0,0,.94-1.6V30.78A1.82,1.82,0,0,0,74,29Z"/><path class="cls-3" d="M36.23,73,74.36,48.87a1.83,1.83,0,0,0,.94-1.6V30.78A1.82,1.82,0,0,0,74,29L0,6V95.83Z"/><polygon class="cls-4" points="0 95.83 36.23 73 0 50.08 0 95.83"/><path class="cls-5" d="M.14,140,74,117a1.82,1.82,0,0,0,1.26-1.73V98.73a1.83,1.83,0,0,0-.93-1.59L0,50.08C0,65.21,0,120,0,140Z"/><path class="cls-6" d="M.14,140,74,117a1.82,1.82,0,0,0,1.26-1.73V98.73a1.83,1.83,0,0,0-.93-1.59L36.23,73,0,95.83V140Z"/><g class="cls-7"><path class="cls-8" d="M74.37,97.14l-1.06-.67L0,105v4.08l72.27,8.43L74,117a1.82,1.82,0,0,0,1.26-1.73V98.73A1.83,1.83,0,0,0,74.37,97.14Z"/></g><g class="cls-9"><path class="cls-10" d="M74.36,48.87a1.83,1.83,0,0,0,.94-1.6V30.78A1.82,1.82,0,0,0,74,29l-1.24-.38L0,37.14v4.08l73,8.51Z"/></g><path class="cls-11" d="M66.71,39.18a8.59,8.59,0,0,0,8.52,8.59,1.81,1.81,0,0,0,.07-.5V30.78a1.85,1.85,0,0,0,0-.18A8.59,8.59,0,0,0,66.71,39.18Z"/><path class="cls-12" d="M66.71,107.05a8.59,8.59,0,0,0,8.55,8.59,1.83,1.83,0,0,0,0-.41V98.73a1.82,1.82,0,0,0,0-.27A8.59,8.59,0,0,0,66.71,107.05Z"/><path class="cls-13" d="M74.7,142.91a44.16,44.16,0,0,0,15.83-8,34.71,34.71,0,0,0,9.94-13.22,46,46,0,0,0,3.43-18.37,40.17,40.17,0,0,0-1.49-10.94,32.33,32.33,0,0,0-4.52-9.64,30.53,30.53,0,0,0-7.65-7.6A34.72,34.72,0,0,0,79.35,70.2L78.78,70l.54-.23c6.87-2.9,12.15-7.05,15.71-12.33A31.38,31.38,0,0,0,100.4,39.6,41.67,41.67,0,0,0,97,22,31.29,31.29,0,0,0,87.08,9.86,44.75,44.75,0,0,0,71.25,2.75,87.84,87.84,0,0,0,50.1.4H.4V5.67l73.76,23a2.22,2.22,0,0,1,1.54,2.12v16.5a2.23,2.23,0,0,1-1.14,1.94L37,73l37.6,23.79a2.23,2.23,0,0,1,1.13,1.94v16.5a2.22,2.22,0,0,1-1.54,2.12L.4,140.33v5.27H53.6A76.41,76.41,0,0,0,74.7,142.91Z"/><path class="cls-14" d="M74.7,142.91a44.16,44.16,0,0,0,15.83-8,34.71,34.71,0,0,0,9.94-13.22,46,46,0,0,0,3.43-18.37,40.17,40.17,0,0,0-1.49-10.94,32.33,32.33,0,0,0-4.52-9.64,30.53,30.53,0,0,0-7.65-7.6A34.72,34.72,0,0,0,79.35,70.2L78.78,70l.54-.23c6.87-2.9,12.15-7.05,15.71-12.33a31.25,31.25,0,0,0,2.81-5.12l0-.05,0,0L75.55,29.94a2.23,2.23,0,0,1,.16.84v16.5a2.23,2.23,0,0,1-1.14,1.94L37,73l37.6,23.79a2.23,2.23,0,0,1,1.13,1.94v16.5a2.22,2.22,0,0,1-1.54,2.12L.4,140.33v5.27H53.6A76.41,76.41,0,0,0,74.7,142.91Z"/><path class="cls-15" d="M102.41,92.36c-.11-.37-.22-.75-.34-1.11-.06-.17-.13-.33-.19-.5a32.11,32.11,0,0,0-4-8,30.54,30.54,0,0,0-7.65-7.6,31.33,31.33,0,0,0-5.16-2.9l0,0c-.49-.22-1-.4-1.51-.6s-.79-.33-1.2-.48q-1.44-.51-3-.92L78.78,70l.54-.23c.77-.32,1.5-.67,2.23-1l.47-.23c.7-.35,1.38-.72,2-1.1l.33-.2q.9-.53,1.74-1.09l.33-.22q.92-.62,1.77-1.29l.39-.31c.56-.44,1.1-.9,1.62-1.37l.07-.06h0L75.54,48.13s0,.06-.06.1a2.2,2.2,0,0,1-.25.41c0,.05-.08.11-.12.16a2.21,2.21,0,0,1-.53.43L37,73l37.6,23.79a2.23,2.23,0,0,1,1.13,1.94v16.5a2.22,2.22,0,0,1-1.54,2.12L.4,140.33v5.27H53.6a76.41,76.41,0,0,0,21.09-2.69,44.16,44.16,0,0,0,15.83-8,34.71,34.71,0,0,0,9.94-13.22,46,46,0,0,0,3.43-18.37A40.17,40.17,0,0,0,102.41,92.36Z"/><path class="cls-15" d="M90.52,134.9a34.63,34.63,0,0,0,9.63-12.54L75.4,97.6a2.23,2.23,0,0,1,.31,1.13v16.5a2.22,2.22,0,0,1-1.54,2.12L.4,140.33v5.27H53.6a76.41,76.41,0,0,0,21.09-2.69A44.16,44.16,0,0,0,90.52,134.9Z"/><path class="cls-16" d="M53.6,146H0v-6l.14,0L74,117a1.82,1.82,0,0,0,1.26-1.73V98.73a1.83,1.83,0,0,0-.93-1.59L36.23,73l.27-.17,37.87-24a1.83,1.83,0,0,0,.94-1.6V30.78A1.82,1.82,0,0,0,74,29L0,6V0H50.1A88.24,88.24,0,0,1,71.35,2.36a45.17,45.17,0,0,1,16,7.18,31.7,31.7,0,0,1,10,12.33A42.07,42.07,0,0,1,100.8,39.6a31.78,31.78,0,0,1-5.43,18.11A34.87,34.87,0,0,1,80,70a34.78,34.78,0,0,1,10.46,4.83,30.92,30.92,0,0,1,7.75,7.7,32.76,32.76,0,0,1,4.58,9.76h0a40.59,40.59,0,0,1,1.51,11.06,46.43,46.43,0,0,1-3.47,18.53,35.13,35.13,0,0,1-10.06,13.38,44.58,44.58,0,0,1-16,8.09A76.84,76.84,0,0,1,53.6,146ZM.4,145.6H53.6a76.41,76.41,0,0,0,21.09-2.69,44.16,44.16,0,0,0,15.83-8,34.71,34.71,0,0,0,9.94-13.22,46,46,0,0,0,3.43-18.37,40.17,40.17,0,0,0-1.49-10.94h0a32.33,32.33,0,0,0-4.52-9.64,30.53,30.53,0,0,0-7.65-7.6A34.72,34.72,0,0,0,79.35,70.2L78.78,70l.54-.23c6.87-2.9,12.15-7.05,15.71-12.33A31.38,31.38,0,0,0,100.4,39.6,41.67,41.67,0,0,0,97,22,31.29,31.29,0,0,0,87.08,9.86,44.75,44.75,0,0,0,71.25,2.75,87.84,87.84,0,0,0,50.1.4H.4V5.67l73.76,23a2.22,2.22,0,0,1,1.54,2.12v16.5a2.23,2.23,0,0,1-1.14,1.94L37,73l37.6,23.79a2.23,2.23,0,0,1,1.13,1.94v16.5a2.22,2.22,0,0,1-1.54,2.12L.4,140.33Z"/><path class="cls-17" d="M90.52,134.9q1-.8,1.89-1.66l-17-17a2.23,2.23,0,0,1-1.28,1.08L.4,140.33v5.27H53.6a76.41,76.41,0,0,0,21.09-2.69A44.16,44.16,0,0,0,90.52,134.9Z"/></g></g></svg>