<svg xmlns="http://www.w3.org/2000/svg" xmlns:xlink="http://www.w3.org/1999/xlink" viewBox="0 0 77.49 28"><defs><style>.cls-1,.cls-13{fill:#ff6d00;}.cls-1{stroke:#ff6d00;stroke-miterlimit:10;stroke-width:0.08px;}.cls-11,.cls-2,.cls-7,.cls-9{fill:#fff;}.cls-2{opacity:0.8;}.cls-3{fill:#ffc400;}.cls-4{opacity:0.65;}.cls-5{fill:#ffe082;}.cls-6{fill:url(#linear-gradient);}.cls-7{opacity:0.9;}.cls-8{fill:url(#linear-gradient-2);}.cls-10{opacity:0.7;}.cls-11{opacity:0.6;}.cls-12{fill:url(#linear-gradient-3);}</style><linearGradient id="linear-gradient" x1="14.43" y1="9.11" x2="14.44" y2="9.11" gradientUnits="userSpaceOnUse"><stop offset="0" stop-color="#fff" stop-opacity="0.1"/><stop offset="0.01" stop-color="#fff" stop-opacity="0.13"/><stop offset="0.07" stop-color="#fff" stop-opacity="0.31"/><stop offset="0.14" stop-color="#fff" stop-opacity="0.48"/><stop offset="0.21" stop-color="#fff" stop-opacity="0.62"/><stop offset="0.29" stop-color="#fff" stop-opacity="0.74"/><stop offset="0.38" stop-color="#fff" stop-opacity="0.83"/><stop offset="0.47" stop-color="#fff" stop-opacity="0.91"/><stop offset="0.58" stop-color="#fff" stop-opacity="0.96"/><stop offset="0.72" stop-color="#fff" stop-opacity="0.99"/><stop offset="1" stop-color="#fff"/></linearGradient><linearGradient id="linear-gradient-2" x1="12.79" y1="7.51" x2="14.44" y2="7.51" xlink:href="#linear-gradient"/><linearGradient id="linear-gradient-3" x1="12.79" y1="20.53" x2="14.44" y2="20.53" gradientUnits="userSpaceOnUse"><stop offset="0" stop-color="#fff" stop-opacity="0"/><stop offset="0.01" stop-color="#fffffc" stop-opacity="0.02"/><stop offset="0.17" stop-color="#fffad1" stop-opacity="0.27"/><stop offset="0.34" stop-color="#fff6ac" stop-opacity="0.49"/><stop offset="0.49" stop-color="#fef38e" stop-opacity="0.68"/><stop offset="0.64" stop-color="#fef076" stop-opacity="0.82"/><stop offset="0.78" stop-color="#feee65" stop-opacity="0.92"/><stop offset="0.9" stop-color="#feed5b" stop-opacity="0.98"/><stop offset="1" stop-color="#feed57"/><stop offset="1" stop-color="#fef17e"/><stop offset="1" stop-color="#fef5a1"/><stop offset="1" stop-color="#fff8be"/><stop offset="1" stop-color="#fffbd6"/><stop offset="1" stop-color="#fffde8"/><stop offset="1" stop-color="#fffef5"/><stop offset="1" stop-color="#fffffd"/><stop offset="1" stop-color="#fff"/></linearGradient></defs><title>beam-logo-3-color-name-right</title><g id="Calque_2" data-name="Calque 2"><g id="Layer_1" data-name="Layer 1"><path class="cls-1" d="M40,16.22a8.3,8.3,0,0,1-.27,2.18,5.15,5.15,0,0,1-.79,1.69,3.69,3.69,0,0,1-1.27,1.1,3.62,3.62,0,0,1-1.71.4,4.17,4.17,0,0,1-2-.44A3.78,3.78,0,0,1,32.59,20l0,1.45H31.44V6.4h1.16v6a3.76,3.76,0,0,1,1.34-1.27,4,4,0,0,1,2-.45,3.75,3.75,0,0,1,1.72.38A3.61,3.61,0,0,1,38.9,12.1a5,5,0,0,1,.79,1.69A8.51,8.51,0,0,1,40,16ZM38.79,16a8,8,0,0,0-.18-1.72,4.23,4.23,0,0,0-.55-1.39,2.66,2.66,0,0,0-2.37-1.26,3.47,3.47,0,0,0-1.17.18,2.91,2.91,0,0,0-.88.48A3,3,0,0,0,33,13a4,4,0,0,0-.41.81v4.77a3.89,3.89,0,0,0,.46.79,3,3,0,0,0,.66.63,3.09,3.09,0,0,0,.87.42,3.78,3.78,0,0,0,1.11.15,2.73,2.73,0,0,0,1.37-.33,2.79,2.79,0,0,0,1-.92,4.25,4.25,0,0,0,.56-1.38,7.81,7.81,0,0,0,.18-1.72Z"/><path class="cls-1" d="M46.33,21.6a4.64,4.64,0,0,1-1.9-.39,4.46,4.46,0,0,1-1.5-1.07,4.94,4.94,0,0,1-1-1.64,5.94,5.94,0,0,1-.35-2.08V16A6.34,6.34,0,0,1,42,13.79a5.19,5.19,0,0,1,1-1.69A4.43,4.43,0,0,1,44.39,11a4,4,0,0,1,1.72-.38A4.21,4.21,0,0,1,47.9,11a3.69,3.69,0,0,1,1.31,1A4.42,4.42,0,0,1,50,13.54a6.6,6.6,0,0,1,.27,1.94v.71H42.76v.22A5,5,0,0,0,43,18.06a4.12,4.12,0,0,0,.74,1.33,3.52,3.52,0,0,0,1.14.89,3.29,3.29,0,0,0,1.47.33A3.81,3.81,0,0,0,48,20.27a3.68,3.68,0,0,0,1.3-1.09l.73.56a5.14,5.14,0,0,1-.61.72,3.72,3.72,0,0,1-.81.6,4.37,4.37,0,0,1-1,.4A5.24,5.24,0,0,1,46.33,21.6Zm-.21-10a3,3,0,0,0-1.23.25,3,3,0,0,0-1,.72,3.83,3.83,0,0,0-.71,1.13,5.4,5.4,0,0,0-.38,1.46h6.34v-.13a4.75,4.75,0,0,0-.21-1.28,3.44,3.44,0,0,0-.57-1.1,2.73,2.73,0,0,0-2.23-1.05Z"/><path class="cls-1" d="M58.94,21.4a3.43,3.43,0,0,1-.15-.67q-.05-.4-.07-.81a4.17,4.17,0,0,1-1.44,1.17,4.94,4.94,0,0,1-1,.36,4.71,4.71,0,0,1-1.16.14,4.16,4.16,0,0,1-1.4-.22,3.16,3.16,0,0,1-1.07-.63,2.86,2.86,0,0,1-.69-1,3.06,3.06,0,0,1,.09-2.58,3,3,0,0,1,1-1.05,4.66,4.66,0,0,1,1.52-.66,8.06,8.06,0,0,1,2-.23H58.7v-1.2a2.31,2.31,0,0,0-.7-1.78,2.88,2.88,0,0,0-2-.65,3.68,3.68,0,0,0-1.13.17,2.86,2.86,0,0,0-.89.46,2.19,2.19,0,0,0-.59.68,1.7,1.7,0,0,0-.21.83H52a2.44,2.44,0,0,1,.29-1.15,3.2,3.2,0,0,1,.83-1,4.23,4.23,0,0,1,1.28-.7A5,5,0,0,1,56,10.64a5.3,5.3,0,0,1,1.55.21,3.34,3.34,0,0,1,1.22.64,2.91,2.91,0,0,1,.79,1.07,3.7,3.7,0,0,1,.28,1.5v5.12c0,.18,0,.37,0,.57s0,.38.06.57.06.36.1.52a2.79,2.79,0,0,0,.14.43v.12Zm-3.67-.84a4.11,4.11,0,0,0,1.18-.16,3.81,3.81,0,0,0,1-.44,3.51,3.51,0,0,0,.76-.66,3.32,3.32,0,0,0,.52-.82V16.16h-2a7.28,7.28,0,0,0-1.61.16,3.91,3.91,0,0,0-1.2.46,2.19,2.19,0,0,0-.75.74,1.88,1.88,0,0,0-.26,1,2,2,0,0,0,.17.81,1.93,1.93,0,0,0,.47.65,2.26,2.26,0,0,0,.75.44A2.85,2.85,0,0,0,55.27,20.56Z"/><path class="cls-1" d="M63.75,10.83l0,1.72a4.49,4.49,0,0,1,.61-.79,3.58,3.58,0,0,1,.78-.61,3.87,3.87,0,0,1,.94-.39,4.17,4.17,0,0,1,1.09-.14,3.85,3.85,0,0,1,2,.49,2.69,2.69,0,0,1,1.18,1.56,4.35,4.35,0,0,1,.61-.82,3.83,3.83,0,0,1,.81-.65,4.1,4.1,0,0,1,1-.43A4.28,4.28,0,0,1,74,10.64a4.53,4.53,0,0,1,1.46.22,2.62,2.62,0,0,1,1.09.69,3.11,3.11,0,0,1,.68,1.21,5.8,5.8,0,0,1,.23,1.76V21.4H76.28V14.51a4.41,4.41,0,0,0-.19-1.39,2.11,2.11,0,0,0-.53-.88,1.83,1.83,0,0,0-.82-.45,4,4,0,0,0-1-.13,3.09,3.09,0,0,0-2.24.92,3.07,3.07,0,0,0-.85,1.83v7H69.44v-7a4,4,0,0,0-.19-1.32,2.09,2.09,0,0,0-.53-.85,2,2,0,0,0-.82-.46,3.75,3.75,0,0,0-1-.14,3,3,0,0,0-1.17.21,2.91,2.91,0,0,0-.88.56,3.16,3.16,0,0,0-.62.8,5,5,0,0,0-.39.93V21.4H62.62V10.83Z"/><path class="cls-2" d="M0,1.14V26.85H0V28H10.28a14.73,14.73,0,0,0,4.07-.52,8.55,8.55,0,0,0,3.06-1.55,6.74,6.74,0,0,0,1.93-2.56A8.9,8.9,0,0,0,20,19.81a7.78,7.78,0,0,0-.29-2.12,6.28,6.28,0,0,0-.88-1.87,5.93,5.93,0,0,0-1.49-1.48,6.67,6.67,0,0,0-2-.93,6.69,6.69,0,0,0,2.95-2.35,6.09,6.09,0,0,0,1-3.47,8.07,8.07,0,0,0-.67-3.4,6.08,6.08,0,0,0-1.92-2.36A8.66,8.66,0,0,0,13.68.45,16.92,16.92,0,0,0,9.61,0H0V1.14"/><path class="cls-3" d="M14.26,18.63,6.95,14l7.31-4.63a.35.35,0,0,0,.18-.31V5.9a.35.35,0,0,0-.24-.33L0,1.14V26.85H0L14.2,22.43a.35.35,0,0,0,.24-.33V18.93A.35.35,0,0,0,14.26,18.63Z"/><g class="cls-4"><path class="cls-5" d="M12.79,7.51a1.65,1.65,0,0,1,1.64-1.65.35.35,0,0,0-.24-.3L14,5.49,0,7.12V7.9L14,9.54l.26-.17a.35.35,0,0,0,.17-.21A1.65,1.65,0,0,1,12.79,7.51Z"/></g><g class="cls-4"><path class="cls-6" d="M14.43,9.16a.35.35,0,0,0,0-.09A.35.35,0,0,1,14.43,9.16Z"/></g><path class="cls-7" d="M14.44,5.87h0a.34.34,0,0,1,0,0S14.44,5.88,14.44,5.87Z"/><polygon class="cls-7" points="14.43 9.16 14.43 9.16 14.43 9.16 14.43 9.16"/><g class="cls-4"><path class="cls-8" d="M14.44,5.9a.34.34,0,0,0,0,0,1.65,1.65,0,0,0,0,3.29h0a.35.35,0,0,0,0-.09Z"/></g><path class="cls-9" d="M14.44,5.9a.34.34,0,0,0,0,0,1.65,1.65,0,0,0,0,3.29h0a.35.35,0,0,0,0-.09Z"/><g class="cls-10"><path class="cls-5" d="M12.79,20.53a1.65,1.65,0,0,1,1.64-1.65.35.35,0,0,0-.17-.25l-.2-.13L0,20.14v.78l13.86,1.62.34-.11a.35.35,0,0,0,.23-.25A1.65,1.65,0,0,1,12.79,20.53Z"/></g><path class="cls-11" d="M14.43,22.17a.35.35,0,0,0,0-.08.35.35,0,0,1,0,.08Z"/><path class="cls-11" d="M14.44,18.88h0a.34.34,0,0,1,0,.05A.35.35,0,0,0,14.44,18.88Z"/><g class="cls-10"><path class="cls-12" d="M14.43,18.88a1.65,1.65,0,0,0,0,3.29.35.35,0,0,0,0-.08V18.93A.34.34,0,0,0,14.43,18.88Z"/></g><path class="cls-9" d="M14.43,18.88a1.65,1.65,0,0,0,0,3.29.35.35,0,0,0,0-.08V18.93A.34.34,0,0,0,14.43,18.88Z"/><path class="cls-13" d="M19.71,17.69a6.28,6.28,0,0,0-.88-1.87,5.93,5.93,0,0,0-1.49-1.48,6.67,6.67,0,0,0-2-.93,6.69,6.69,0,0,0,2.95-2.35,6.09,6.09,0,0,0,1-3.47,8.07,8.07,0,0,0-.67-3.4,6.08,6.08,0,0,0-1.92-2.36A8.66,8.66,0,0,0,13.68.45,16.92,16.92,0,0,0,9.61,0H0V1.14L14.2,5.57a.35.35,0,0,1,.24.33V9.06a.35.35,0,0,1-.18.31L7,14l-.05,0,7.31,4.63a.35.35,0,0,1,.18.31v3.16a.35.35,0,0,1-.24.33L0,26.84H0V28H10.28a14.73,14.73,0,0,0,4.07-.52,8.55,8.55,0,0,0,3.06-1.55,6.74,6.74,0,0,0,1.93-2.56A8.9,8.9,0,0,0,20,19.81,7.78,7.78,0,0,0,19.71,17.69Z"/></g></g></svg>