<svg xmlns="http://www.w3.org/2000/svg" viewBox="0 0 46.2 52.5"><defs><style>.cls-1,.cls-7{fill:#757575;}.cls-1{stroke:#757575;stroke-miterlimit:10;stroke-width:0.19px;}.cls-2,.cls-6{fill:#fff;}.cls-3{fill:#bdbdbd;}.cls-4{opacity:0.7;}.cls-5{opacity:0.65;}.cls-6{opacity:0.9;}.cls-7{opacity:0.8;}</style></defs><title>beam-logo-bw-name-bottom</title><g id="Calque_2" data-name="Calque 2"><g id="Layer_1" data-name="Layer 1"><path class="cls-1" d="M8.61,47a8.27,8.27,0,0,1-.27,2.18,5.11,5.11,0,0,1-.79,1.69A3.67,3.67,0,0,1,6.29,52a3.62,3.62,0,0,1-1.71.4,4.18,4.18,0,0,1-2-.44,3.78,3.78,0,0,1-1.35-1.2l0,1.45H.1v-15H1.26v6A3.76,3.76,0,0,1,2.6,41.9a4,4,0,0,1,2-.45,3.75,3.75,0,0,1,1.72.38,3.6,3.6,0,0,1,1.27,1.08,5,5,0,0,1,.79,1.69,8.49,8.49,0,0,1,.27,2.22Zm-1.17-.21a8,8,0,0,0-.18-1.72,4.23,4.23,0,0,0-.55-1.39,2.77,2.77,0,0,0-1-.92,2.78,2.78,0,0,0-1.41-.34,3.5,3.5,0,0,0-1.17.18,3,3,0,0,0-.88.48,3,3,0,0,0-.62.69,4.13,4.13,0,0,0-.41.81V49.4a3.88,3.88,0,0,0,.46.79,3,3,0,0,0,.66.63,3,3,0,0,0,.87.42,3.75,3.75,0,0,0,1.11.15,2.72,2.72,0,0,0,1.37-.33,2.78,2.78,0,0,0,1-.92,4.23,4.23,0,0,0,.56-1.38A7.76,7.76,0,0,0,7.44,47Z"/><path class="cls-1" d="M15,52.4a4.63,4.63,0,0,1-1.9-.39,4.45,4.45,0,0,1-1.5-1.07,4.93,4.93,0,0,1-1-1.64,5.93,5.93,0,0,1-.35-2.08v-.42a6.35,6.35,0,0,1,.37-2.21,5.22,5.22,0,0,1,1-1.69A4.45,4.45,0,0,1,13,41.83a4,4,0,0,1,1.72-.38,4.22,4.22,0,0,1,1.79.36,3.69,3.69,0,0,1,1.31,1,4.42,4.42,0,0,1,.81,1.53,6.59,6.59,0,0,1,.27,1.94V47H11.41v.22a5,5,0,0,0,.26,1.64,4.11,4.11,0,0,0,.74,1.33,3.5,3.5,0,0,0,1.14.89,3.28,3.28,0,0,0,1.47.33,3.8,3.8,0,0,0,1.66-.34A3.66,3.66,0,0,0,18,50l.73.56a5.05,5.05,0,0,1-.61.72,3.63,3.63,0,0,1-.81.6,4.31,4.31,0,0,1-1,.4A5.24,5.24,0,0,1,15,52.4Zm-.21-10a3,3,0,0,0-1.23.25,3.07,3.07,0,0,0-1,.72,3.84,3.84,0,0,0-.71,1.13A5.43,5.43,0,0,0,11.45,46h6.34v-.13a4.72,4.72,0,0,0-.21-1.28A3.44,3.44,0,0,0,17,43.5a2.83,2.83,0,0,0-.93-.77A2.8,2.8,0,0,0,14.77,42.44Z"/><path class="cls-1" d="M27.59,52.21a3.35,3.35,0,0,1-.15-.67q-.05-.4-.07-.81a4.17,4.17,0,0,1-1.44,1.17,4.85,4.85,0,0,1-1,.36,4.67,4.67,0,0,1-1.16.14,4.13,4.13,0,0,1-1.4-.22,3.13,3.13,0,0,1-1.07-.63,2.83,2.83,0,0,1-.69-1A3.06,3.06,0,0,1,20.71,48a3,3,0,0,1,1-1.05,4.69,4.69,0,0,1,1.52-.66,8.11,8.11,0,0,1,2-.23h2.17v-1.2a2.32,2.32,0,0,0-.7-1.78,2.89,2.89,0,0,0-2-.65,3.7,3.7,0,0,0-1.13.17,2.87,2.87,0,0,0-.89.46,2.19,2.19,0,0,0-.59.68,1.7,1.7,0,0,0-.21.83H20.63a2.45,2.45,0,0,1,.29-1.15,3.21,3.21,0,0,1,.83-1,4.24,4.24,0,0,1,1.28-.7,5,5,0,0,1,1.66-.26,5.33,5.33,0,0,1,1.55.21,3.38,3.38,0,0,1,1.22.64,2.93,2.93,0,0,1,.79,1.07,3.71,3.71,0,0,1,.28,1.5V50q0,.27,0,.57c0,.2,0,.38.06.57s.06.36.1.52a2.71,2.71,0,0,0,.14.43v.12Zm-3.67-.84a4.11,4.11,0,0,0,1.18-.16,3.78,3.78,0,0,0,1-.44,3.46,3.46,0,0,0,.76-.66,3.31,3.31,0,0,0,.52-.82V47h-2a7.27,7.27,0,0,0-1.61.16,3.92,3.92,0,0,0-1.2.46,2.2,2.2,0,0,0-.75.74,1.88,1.88,0,0,0-.26,1,2,2,0,0,0,.17.81,1.92,1.92,0,0,0,.47.65,2.26,2.26,0,0,0,.75.44A2.85,2.85,0,0,0,23.92,51.37Z"/><path class="cls-1" d="M32.4,41.64l0,1.72a4.54,4.54,0,0,1,.61-.79,3.59,3.59,0,0,1,.78-.61,3.89,3.89,0,0,1,.94-.39,4.21,4.21,0,0,1,1.09-.14,3.86,3.86,0,0,1,2,.49A2.7,2.7,0,0,1,39,43.5a4.34,4.34,0,0,1,.61-.82,3.88,3.88,0,0,1,.81-.65,4.16,4.16,0,0,1,1-.43,4.31,4.31,0,0,1,1.18-.16,4.53,4.53,0,0,1,1.46.22,2.63,2.63,0,0,1,1.09.69,3.13,3.13,0,0,1,.68,1.21,5.8,5.8,0,0,1,.23,1.76v6.88H44.93V45.31a4.44,4.44,0,0,0-.19-1.39,2.14,2.14,0,0,0-.53-.88,1.86,1.86,0,0,0-.82-.45,4,4,0,0,0-1-.13,3.09,3.09,0,0,0-2.24.92,3.07,3.07,0,0,0-.85,1.83v7H38.09v-7a4,4,0,0,0-.19-1.32,2.1,2.1,0,0,0-.53-.85,2,2,0,0,0-.82-.46,3.79,3.79,0,0,0-1-.14,3.05,3.05,0,0,0-1.17.21,2.92,2.92,0,0,0-.88.56,3.16,3.16,0,0,0-.62.8,5,5,0,0,0-.39.93v7.25H31.28V41.64Z"/><path class="cls-2" d="M13.1,1.14v25.7h0V28H23.38a14.74,14.74,0,0,0,4.07-.52,8.55,8.55,0,0,0,3.06-1.55,6.73,6.73,0,0,0,1.93-2.56,8.9,8.9,0,0,0,.66-3.55,7.78,7.78,0,0,0-.29-2.12,6.28,6.28,0,0,0-.88-1.87,5.93,5.93,0,0,0-1.49-1.48,6.67,6.67,0,0,0-2-.92,6.69,6.69,0,0,0,2.95-2.35,6.09,6.09,0,0,0,1-3.47,8.06,8.06,0,0,0-.67-3.4,6.08,6.08,0,0,0-1.92-2.36A8.66,8.66,0,0,0,26.78.45,16.93,16.93,0,0,0,22.7,0H13.1V1.14"/><path class="cls-3" d="M27.36,18.62,20,14l7.31-4.62a.35.35,0,0,0,.18-.31V5.9a.35.35,0,0,0-.24-.33L13.1,1.14v25.7h0L27.3,22.42a.35.35,0,0,0,.24-.33V18.92A.35.35,0,0,0,27.36,18.62Z"/><g class="cls-4"><path class="cls-2" d="M27.36,18.62l-.2-.13L13.1,19.88V21L27,22.52l.34-.11a.35.35,0,0,0,.24-.33V18.92A.35.35,0,0,0,27.36,18.62Z"/></g><g class="cls-5"><path class="cls-2" d="M27.36,9.37a.35.35,0,0,0,.18-.31V5.9a.35.35,0,0,0-.24-.33l-.24-.07-14,1.33V8.19l14,1.34Z"/></g><path class="cls-6" d="M25.89,7.51a1.65,1.65,0,0,0,1.63,1.65.35.35,0,0,0,0-.1V5.9a.35.35,0,0,0,0,0A1.65,1.65,0,0,0,25.89,7.51Z"/><path class="cls-2" d="M25.89,20.52a1.65,1.65,0,0,0,1.64,1.65.35.35,0,0,0,0-.08V18.92a.35.35,0,0,0,0-.05A1.65,1.65,0,0,0,25.89,20.52Z"/><path class="cls-7" d="M32.81,17.68a6.28,6.28,0,0,0-.88-1.87,5.93,5.93,0,0,0-1.49-1.48,6.67,6.67,0,0,0-2-.92,6.69,6.69,0,0,0,2.95-2.35,6.09,6.09,0,0,0,1-3.47,8.06,8.06,0,0,0-.67-3.4,6.08,6.08,0,0,0-1.92-2.36A8.66,8.66,0,0,0,26.78.45,16.93,16.93,0,0,0,22.7,0H13.1V1.14L27.3,5.57a.35.35,0,0,1,.24.33V9.06a.35.35,0,0,1-.18.31L20.1,14,20,14l7.31,4.63a.35.35,0,0,1,.18.31v3.16a.35.35,0,0,1-.24.33L13.13,26.83h0V28H23.38a14.74,14.74,0,0,0,4.07-.52,8.55,8.55,0,0,0,3.06-1.55,6.73,6.73,0,0,0,1.93-2.56,8.9,8.9,0,0,0,.66-3.55A7.78,7.78,0,0,0,32.81,17.68Z"/></g></g></svg>